<svg width="300" height="300" viewBox="0 0 300 300" fill="none" xmlns="http://www.w3.org/2000/svg">
<path d="M271.131 164.195C281.923 164.195 290.672 155.445 290.672 144.653C290.672 133.86 281.923 125.111 271.131 125.111C260.338 125.111 251.589 133.86 251.589 144.653C251.589 155.445 260.338 164.195 271.131 164.195Z" stroke="#C1C1C1" stroke-miterlimit="10" stroke-dasharray="12.28 12.28"/>
<path d="M225.142 71.1917C233.15 73.9056 241.111 77.2167 246.714 82.4167C252.317 87.6167 255.122 95.0917 251.761 101.347C247.272 109.703 233.05 114.561 232.983 123.614C232.936 130.097 240.653 135.044 248.445 137.403C256.233 139.758 264.858 140.608 271.945 144.053C282.636 149.25 287.65 159.311 289.703 168.964C291.833 178.986 290.97 190.397 281.822 197.669C270.453 206.708 251.647 205.689 235.55 203.761C214.069 201.189 192.683 198.167 171.303 195.147C124.431 188.525 77.5584 181.9 30.6862 175.278C25.6612 174.567 20.4306 173.792 16.3473 171.411C8.23894 166.686 7.55005 156.931 12.2639 149.967C16.9778 143.003 25.6973 138.272 34.3584 134.175C43.0195 130.081 52.1639 126.208 58.6528 120.161C65.1389 114.114 68.3667 105.164 63.4584 98.2806C59.3001 92.45 50.3639 89.3334 46.4695 83.3945C41.3362 75.5695 47.2417 65.575 56.5556 60.5806C65.8695 55.5861 182.831 56.8473 225.142 71.1917Z" fill="#F7F7F7"/>
<path d="M243.583 158.245L240.042 158.95L239.533 156.403C239.189 154.67 237.583 153.525 235.958 153.847L218.5 157.331C216.875 157.656 215.831 159.328 216.178 161.061L216.686 163.608L213.144 164.314C212.742 164.395 212.483 164.811 212.567 165.239L216.275 183.836C216.361 184.264 216.761 184.55 217.164 184.47L247.608 178.397C248.011 178.317 248.269 177.9 248.186 177.472L244.478 158.875C244.386 158.45 243.986 158.164 243.583 158.245ZM239.197 159.12L217.525 163.442L217.017 160.895C216.769 159.656 217.514 158.461 218.675 158.231L236.133 154.747C237.294 154.517 238.442 155.333 238.689 156.572L239.197 159.12Z" fill="#FFBE55"/>
<path d="M231.978 170.475L228.342 171.2L212.922 166.369L213.025 166.222L228.38 171.033L231.878 170.336L244.214 160L244.364 160.097L231.978 170.475Z" fill="white"/>
<path d="M148.631 129.1C148.631 129.1 145.283 127.997 144.625 128.383C143.967 128.769 140.567 133.342 140.567 133.342L145.119 135.514L150.275 132.169L148.631 129.1Z" fill="#FCD2B1"/>
<path d="M228.975 151.386C228.975 151.386 231.703 156.914 231.131 157.9C230.556 158.889 224.381 160 224.381 160L222.728 154.456L225.675 151.383H228.975V151.386Z" fill="#FCD2B1"/>
<path d="M181.619 240.119L167.228 244.789H184.747V240.119H181.619Z" fill="#0A3951"/>
<path d="M217.289 240.119L204.145 244.789H221.517L220.625 240.119H217.289Z" fill="#0A3951"/>
<path d="M188.95 144.436L179.867 242.247H185.725C185.725 242.247 199.653 201.647 195.006 196.275C196.5 189.622 206.014 163.267 203.817 160.453C201.619 157.639 197.592 142.947 197.592 142.947L188.95 144.436Z" fill="#083047"/>
<path d="M191.117 147.072L195.839 153.575L215.311 242.247H221.497C221.497 242.247 222.011 197.764 217.578 192.147C215.806 182.097 214.967 147.911 213.658 144.164C207.747 143.87 192.228 142.047 192.228 142.047L191.117 147.072Z" fill="#0A3951"/>
<path d="M224.131 99.1667C221.114 94.4278 212.372 94.8639 205.694 94.2361C203.761 94.0555 202.147 93.2417 200.775 93.0555L191.683 95.7944C191.161 95.9055 183.856 96.4417 183.019 96.9444C182.919 97.0611 175.006 124.906 148.575 128.611C148.853 130.556 148.575 133.333 148.575 133.333C148.575 133.333 175.794 134.122 184.35 118.178C186.228 135.642 188.95 144.436 188.95 144.436L213.95 145.536C213.95 145.536 215.239 118.892 218.017 112.781C232.461 121.947 224.406 152.225 224.406 152.225C224.406 152.225 225.517 152.781 229.128 152.225C237.464 131.111 228.019 105.278 224.131 99.1667Z" fill="white"/>
<path d="M195.006 98.4028L197.917 102.558L203.817 93.5778L201.672 92.2222L195.006 98.4028Z" fill="#F2F2F2"/>
<path d="M195.006 98.4028L194.1 102.558L191.117 96.175L192.228 94.2361L195.006 98.4028Z" fill="#F2F2F2"/>
<path d="M194.397 101.497L195.006 103.378L192.058 135.892C192.058 135.892 195.822 150.875 196.075 149.958C196.328 149.042 200.017 137.105 200.017 137.105L196.658 103.425L196.953 101.478L195.008 98.4L194.397 101.497Z" fill="#FFBE55"/>
<path d="M201.683 68.4223C204.739 70.9223 206.128 76.7556 204.739 79.8112C203.35 82.8667 199.739 84.5334 198.35 86.2001C195.572 82.8667 191.683 80.6445 191.683 80.6445L193.628 72.3112L197.517 70.3667L201.683 68.4223Z" fill="#0E538C"/>
<path d="M192.239 87.7501V94.9723L195.017 99.139L201.683 92.9584L199.044 80.1667L192.239 87.7501Z" fill="#FCD2B1"/>
<path d="M183.708 70.8306C184.486 79.4723 180.353 87.8417 185.005 90.475C186.044 91.7833 196.5 93.225 197.797 89.2972C199.094 85.3695 202.4 74.2361 199.803 70.8306C197.208 67.425 183.708 70.8306 183.708 70.8306Z" fill="#FFE3CA"/>
<path d="M195.85 71.7557C195.294 73.9779 195.85 78.1446 198.072 78.7001C198.072 79.7612 197.958 81.614 197.878 82.8168C197.833 83.4807 198.339 84.0529 199.003 84.089C199.525 84.1168 200.016 84.1112 200.016 83.9779C200.016 83.7001 201.683 71.7557 201.683 71.7557H195.85Z" fill="#0E538C"/>
<path d="M202.161 80.9289C202.598 79.2989 202.151 77.7626 201.163 77.4975C200.174 77.2324 199.019 78.3388 198.581 79.9688C198.144 81.5988 198.591 83.1351 199.579 83.4002C200.568 83.6653 201.723 82.5589 202.161 80.9289Z" fill="#FFE3CA"/>
<path d="M198.35 78.4223L198.072 83.4223L199.461 83.7001L200.017 76.7557L198.35 78.4223Z" fill="#0E538C"/>
<path d="M201.783 72.2834C197.178 73.3973 192.469 74.075 187.739 74.3111C185.297 74.4334 182.583 74.3389 180.8 72.6667C179.33 71.2889 178.85 69.0334 179.4 67.0945C179.95 65.1556 181.422 63.5556 183.197 62.6028C184.972 61.65 187.022 61.3 189.036 61.3278C188.272 61.1973 187.608 62.0806 187.758 62.8417C187.908 63.6028 188.628 64.1445 189.38 64.3361C190.133 64.5278 190.922 64.4389 191.697 64.3778C193.639 64.2278 195.611 64.2639 197.497 64.7445C199.383 65.2223 201.261 66.2445 202.155 67.975C203.05 69.7056 202.569 72.2028 200.805 73.025" fill="#0E538C"/>
<path d="M18.9223 244.789H281.075C283.064 244.789 284.675 246.4 284.675 248.389V267.508C284.675 269.497 283.064 271.108 281.075 271.108H18.9223C16.9334 271.108 15.3223 269.497 15.3223 267.508V248.389C15.3223 246.4 16.9334 244.789 18.9223 244.789Z" fill="#F2F2F2"/>
<path d="M140.508 129.1C140.508 129.1 143.858 127.997 144.514 128.383C145.169 128.769 148.572 133.342 148.572 133.342L144.019 135.514L138.864 132.169L140.508 129.1Z" fill="#FCD2B1"/>
<path d="M60.1639 151.386C60.1639 151.386 57.4361 159.525 58.0083 160.981C58.5833 162.436 64.7584 164.072 64.7584 164.072L64.1834 157.731L65.7639 160.253L66.4834 157.731L63.4667 151.389H60.1639V151.386Z" fill="#FCD2B1"/>
<path d="M107.522 240.12L121.914 244.789H104.392V240.12H107.522Z" fill="#0A3951"/>
<path d="M71.8528 240.12L84.9972 244.789H67.625L68.5167 240.12H71.8528Z" fill="#0A3951"/>
<path d="M99.5333 145.611L109.272 242.247H103.414C103.414 242.247 89.486 201.647 94.1333 196.275C92.6388 189.622 83.1249 163.267 85.3222 160.453C87.5194 157.639 91.5472 142.947 91.5472 142.947L99.5333 145.611Z" fill="#083047"/>
<path d="M98.025 147.072L93.3028 153.575L73.8305 242.247H67.6444C67.6444 242.247 67.1305 197.764 71.5639 192.147C73.3361 182.097 74.4416 147.072 77.6944 144.708C83.6055 144.414 96.9139 142.047 96.9139 142.047L98.025 147.072Z" fill="#0A3951"/>
<path d="M100.011 157.5L93.8999 144.167L81.6777 157.5L76.1221 147.5C76.1221 147.5 73.8999 118.889 71.1221 112.778C56.6777 121.945 64.7332 152.222 64.7332 152.222C64.7332 152.222 63.6221 152.778 60.011 152.222C51.6777 131.111 61.1221 105.278 65.011 99.1668C68.0277 94.4279 76.8888 93.364 83.5666 92.7362C85.4999 92.5557 88.2221 94.1057 89.5943 93.9195C89.5943 93.9195 95.8027 93.7112 101.08 95.1779L101.086 95.1807C103.364 95.814 105.286 96.4418 106.122 96.9445C107.789 98.889 100.011 157.5 100.011 157.5Z" fill="#0E538C"/>
<path d="M106.122 96.9445C106.122 96.9445 110.844 124.444 140.567 128.611C140.289 130.556 140.567 133.333 140.567 133.333C140.567 133.333 111.956 134.167 104.178 116.944C101.678 100.556 106.122 96.9445 106.122 96.9445Z" fill="#0E538C"/>
<path d="M99.5333 94.7611L94.2611 127.814L83.5667 92.7361C85.5 92.5556 87.25 92.4083 88.6222 92.2222L99.5333 94.7611Z" fill="white"/>
<path d="M87.4665 67.6862C84.411 70.1862 83.0221 76.0195 84.411 79.0751C85.7999 82.1306 89.411 83.7973 90.7999 85.464C93.5776 82.1306 97.4665 79.9084 97.4665 79.9084L95.5221 71.5751L91.6332 69.6306L87.4665 67.6862Z" fill="#0E538C"/>
<path d="M96.911 87.0139V94.2362L94.1332 98.4028L87.4666 92.2223L90.1054 79.4306L96.911 87.0139Z" fill="#FCD2B1"/>
<path d="M106.633 70.1862C105.8 79.3529 106.355 89.6307 105.244 91.0196C104.133 92.4085 93.0221 92.4085 91.6333 88.2418C90.2444 84.0751 86.6333 73.7973 89.411 70.1862C92.1888 66.5751 106.633 70.1862 106.633 70.1862Z" fill="#FFE3CA"/>
<path d="M93.2999 71.0195C93.8555 73.2418 93.2999 77.4084 91.0777 77.964C91.0777 79.0251 91.1916 80.8779 91.2721 82.0806C91.3166 82.7445 90.811 83.3168 90.1471 83.3529C89.6249 83.3806 89.1332 83.3751 89.1332 83.2418C89.1332 82.964 87.4666 71.0195 87.4666 71.0195H93.2999Z" fill="#0E538C"/>
<path d="M89.5795 82.6768C90.5679 82.4117 91.0147 80.8754 90.5774 79.2454C90.1402 77.6154 88.9845 76.509 87.9961 76.7741C87.0078 77.0392 86.561 78.5755 86.9982 80.2055C87.4355 81.8355 88.5912 82.9419 89.5795 82.6768Z" fill="#FFE3CA"/>
<path d="M90.8 77.6862L91.0777 82.6862L89.6889 82.964L89.1333 76.0195L90.8 77.6862Z" fill="#0E538C"/>
<path d="M92.0081 71.4222C93.6025 72.6917 95.7192 73.2861 97.7386 73.0306C99.3386 72.8278 100.858 72.125 102.469 72.0861C103.703 72.0556 104.908 72.4195 106.136 72.5361C107.553 72.6695 109.041 72.4556 110.239 71.6861C111.436 70.9167 112.286 69.5334 112.183 68.1139C112.041 66.1334 110.122 64.6528 108.161 64.3306C106.2 64.0084 104.216 64.5695 102.311 65.1361C100.408 65.7 98.4303 66.2806 96.4664 65.9945C95.0914 65.7945 93.8053 65.175 92.4331 64.9472C90.947 64.6972 89.3831 64.925 88.0303 65.5861C87.0081 66.0861 86.0914 66.8445 85.5275 67.8361C84.9636 68.8278 84.7914 70.0584 85.1831 71.1278C85.5359 72.0889 86.3192 72.8584 87.2359 73.3139C88.1525 73.7695 89.1942 73.9306 90.2192 73.9111L92.0081 71.4222Z" fill="#0E538C"/>
<path d="M94.1333 98.4028L91.2249 102.558L85.325 93.5778L87.4666 92.2222L94.1333 98.4028Z" fill="#F2F2F2"/>
<path d="M94.1333 98.4028L95.0389 102.558L98.025 96.175L96.9111 94.2361L94.1333 98.4028Z" fill="#F2F2F2"/>
<path d="M94.7415 101.197L94.1332 102.894L96.6554 112.792C96.6554 112.792 94.511 128.642 94.2582 127.814C94.0054 126.986 89.4749 112.119 89.4749 112.119L92.4832 102.936L92.1887 101.181L94.1332 98.4028L94.7415 101.197Z" fill="#FFBE55"/>
<path d="M141.056 134.664C141.592 133.914 143.203 131.906 143.203 131.906L147.281 134.664L144.492 136.489L141.056 134.664Z" fill="#FFE3CA"/>
<path d="M148.686 129.1C148.686 129.1 146.597 128.086 145.194 127.997C143.792 127.908 141.944 129.906 141.944 129.906C141.944 129.906 142.003 130.264 142.75 130.264C143.494 130.264 144.986 129.547 144.986 129.547L148.75 131.125L148.686 129.1Z" fill="#FFE3CA"/>
<path d="M254.789 45.6028H222.342C215.917 45.6028 210.661 50.8556 210.661 57.2751C210.661 61.7612 213.228 65.6723 216.964 67.6251L216.256 70.9556C216.256 70.9556 221.497 68.9473 222.342 68.9473H254.789C261.214 68.9473 266.469 63.6945 266.469 57.2751C266.469 50.8556 261.214 45.6028 254.789 45.6028Z" fill="#2A94F4"/>
<path d="M257.497 48.639H225.05C218.625 48.639 213.369 53.8918 213.369 60.3113C213.369 64.7974 215.936 68.7085 219.672 70.6613L218.964 73.9918C218.964 73.9918 224.205 71.9835 225.05 71.9835H257.497C263.922 71.9835 269.178 66.7307 269.178 60.3113C269.178 53.8918 263.922 48.639 257.497 48.639Z" stroke="#2A94F4" stroke-miterlimit="10"/>
<path d="M78.8305 53.9833H43.3555C41.8805 53.9833 40.6721 55.1916 40.6721 56.6666V73.3361C40.6721 74.8111 41.8805 76.0194 43.3555 76.0194H70.1332L75.1027 79.7222L73.011 76.0194H78.8332C80.3082 76.0194 81.5166 74.8111 81.5166 73.3361V56.6666C81.5166 55.1916 80.3082 53.9833 78.8305 53.9833Z" fill="#CCE9FF"/>
<path d="M77.8611 55.7111H42.3833C40.9083 55.7111 39.7 56.9194 39.7 58.3944V75.0638C39.7 76.5388 40.9083 77.7472 42.3833 77.7472H69.1611L74.1305 81.4499L72.0388 77.7472H77.8611C79.3361 77.7472 80.5444 76.5388 80.5444 75.0638V58.3944C80.5444 56.9194 79.3361 55.7111 77.8611 55.7111Z" stroke="#CCE9FF" stroke-miterlimit="10"/>
<path d="M34.8083 248.228C40.8305 248.228 43.3721 243.419 44.3721 238.317C45.5027 232.561 44.6721 226.436 44.6721 226.436H24.9444C24.9444 226.436 24.9138 226.669 24.8694 227.086C24.5027 230.708 23.3138 248.228 34.8083 248.228Z" fill="#B6E7FF"/>
<path d="M24.9446 226.436C24.9446 226.867 29.3612 227.217 34.8113 227.217C40.2585 227.217 44.6779 226.867 44.6779 226.436C44.6779 226.005 40.2613 225.655 34.8113 225.655C29.3612 225.655 24.9446 226.005 24.9446 226.436Z" fill="#85DDFF"/>
<path d="M8.09448 171.739C8.09448 171.739 18.5 187.569 24.7417 197.231C30.9834 206.892 32.6195 208.897 33.3612 212.019C34.1056 215.142 34.7723 226.658 34.7723 226.658H35.2334C35.2334 226.658 35.0723 216.881 34.5112 213.592C33.9667 210.411 34.55 209.269 34.9973 205.925C35.4445 202.581 36.0389 197.231 32.6556 193.514C29.275 189.797 30.1667 186.156 28.9778 183.706C27.7889 181.253 18.5723 178.281 17.3834 175.753C16.1945 173.225 10.9945 171.664 8.09448 171.739Z" fill="#2A94F4"/>
<path d="M8.09448 171.74C8.09448 171.74 11.3639 175.456 13.5945 176.72C15.825 177.984 16.8639 176.867 18.5723 179.915C20.2806 182.962 20.3473 184.301 21.9111 185.859C23.475 187.42 25.3334 187.495 25.4834 190.912C25.6334 194.331 24.7417 197.229 24.7417 197.229C24.7417 197.229 8.76393 172.556 8.09448 171.74Z" fill="#41AAF7"/>
<path d="M33.9502 226.658H33.4835C33.4835 226.658 33.3446 223.494 32.0863 221.958C31.2752 220.967 27.8307 219.842 24.4279 218.492C22.5529 217.75 20.6918 216.939 19.2863 216.044C15.3279 213.531 11.5557 205.431 11.2335 203.986C11.1196 203.483 11.0696 203.178 11.0724 202.969V202.964C11.0807 202.575 11.2724 202.517 11.6057 202.125C11.7668 201.936 12.2474 202 12.8363 202.181C14.5418 202.7 15.9835 203.869 16.8752 205.414C17.7002 206.842 19.0196 208.628 20.6363 209.061C23.4307 209.806 23.1974 210.269 24.2279 213.111C25.2557 215.953 27.8529 216.417 31.1113 219.767C34.3696 223.119 33.9502 226.658 33.9502 226.658Z" fill="#2A94F4"/>
<path d="M24.4279 218.492C22.5529 217.75 20.6918 216.939 19.2863 216.045C15.3279 213.531 11.5557 205.431 11.2335 203.986C11.1196 203.483 11.0696 203.178 11.0724 202.969C11.0835 203.064 11.2668 204.347 13.3307 205.2C15.4696 206.083 15.889 206.083 16.1696 207.433C16.4502 208.783 16.6835 210.228 17.8002 210.506C18.9168 210.786 19.6168 209.528 20.4974 211.575C21.3835 213.622 21.8057 214.322 22.6168 214.6C23.4307 214.881 24.0474 214.461 24.2279 216.045C24.3363 217.011 24.3974 217.928 24.4279 218.492Z" fill="#41AAF7"/>
<path d="M37.3722 226.658H37.925C37.925 226.658 39.0055 207.061 40.4916 205.242C41.45 204.067 44.6166 201.964 48.65 200.364C50.8694 199.483 53.0777 198.525 54.7416 197.467C59.4305 194.489 63.8972 184.894 64.2805 183.183C64.4166 182.589 64.475 182.228 64.4722 181.978V181.972C64.4611 181.511 64.2333 181.442 63.8416 180.98C63.6527 180.755 63.0805 180.833 62.3833 181.047C60.3611 181.664 58.6555 183.047 57.6 184.878C56.6222 186.569 55.0583 188.686 53.1444 189.197C49.8361 190.08 50.1111 190.63 48.8888 193.994C47.6722 197.358 44.5944 197.908 40.7361 201.878C36.875 205.847 37.3722 226.658 37.3722 226.658Z" fill="#2A94F4"/>
<path d="M48.6501 200.364C50.8696 199.483 53.0779 198.525 54.7418 197.467C59.4307 194.489 63.8974 184.894 64.2807 183.183C64.4168 182.589 64.4751 182.228 64.4724 181.978C64.4585 182.092 64.2418 183.608 61.8001 184.617C59.2668 185.661 58.7696 185.661 58.439 187.264C58.1085 188.861 57.8307 190.572 56.5085 190.903C55.1863 191.233 54.3585 189.744 53.3113 192.169C52.2613 194.594 51.764 195.422 50.8001 195.753C49.8363 196.083 49.1057 195.586 48.8918 197.464C48.7585 198.611 48.6863 199.697 48.6501 200.364Z" fill="#41AAF7"/>
<path d="M34.8083 248.228C40.8305 248.228 43.3721 243.419 44.3721 238.317C38.4694 236.078 31.036 232.492 24.8694 227.086C24.5027 230.708 23.3138 248.228 34.8083 248.228Z" fill="#CCE9FF"/>
<path d="M265.678 248.964C269.664 248.964 271.344 245.781 272.008 242.403C272.756 238.594 272.208 234.539 272.208 234.539H259.15C259.15 234.539 259.131 234.694 259.1 234.969C258.856 237.369 258.069 248.964 265.678 248.964Z" fill="#B6E7FF"/>
<path d="M259.147 234.542C259.147 234.828 262.069 235.058 265.678 235.058C269.283 235.058 272.208 234.828 272.208 234.542C272.208 234.256 269.286 234.025 265.678 234.025C262.072 234.025 259.147 234.256 259.147 234.542Z" fill="#85DDFF"/>
<path d="M244.264 191.175C244.264 191.175 252.508 203.717 257.453 211.372C262.4 219.028 263.694 220.617 264.283 223.089C264.872 225.561 265.403 234.689 265.403 234.689H266.05C266.05 234.689 266.461 226.975 265.697 224.444C264.931 221.914 265.225 220.911 265.581 218.261C265.933 215.611 266.406 211.372 263.725 208.428C261.047 205.483 261.753 202.6 260.811 200.656C259.869 198.711 252.567 196.358 251.625 194.356C250.683 192.353 246.561 191.117 244.264 191.175Z" fill="#2A94F4"/>
<path d="M246.067 191.175C246.067 191.175 248.658 194.119 250.425 195.119C252.192 196.119 253.017 195.236 254.369 197.65C255.725 200.064 255.775 201.125 257.017 202.361C258.256 203.597 259.728 203.656 259.847 206.364C259.964 209.072 259.258 211.369 259.258 211.369C259.258 211.369 246.597 191.822 246.067 191.175Z" fill="#41AAF7"/>
<path d="M268.145 234.542L268.617 234.4C268.617 234.4 267.797 231.156 268.606 229.219C269.125 227.969 272.27 225.786 275.306 223.389C276.978 222.069 278.617 220.683 279.77 219.353C283.014 215.608 284.372 206.267 284.264 204.706C284.228 204.161 284.186 203.839 284.12 203.628L284.117 203.622C283.992 203.231 283.778 203.231 283.322 202.936C283.103 202.792 282.633 203.006 282.095 203.367C280.525 204.411 279.422 206.031 278.986 207.864C278.583 209.561 277.789 211.769 276.286 212.694C273.686 214.297 274.061 214.694 273.878 217.883C273.7 221.069 271.211 222.328 268.931 226.708C266.647 231.086 268.145 234.542 268.145 234.542Z" fill="#2A94F4"/>
<path d="M275.306 223.386C276.978 222.067 278.617 220.68 279.769 219.35C283.014 215.605 284.372 206.264 284.264 204.703C284.228 204.158 284.186 203.836 284.119 203.625C284.136 203.725 284.339 205.078 282.511 206.567C280.614 208.108 280.189 208.236 280.317 209.689C280.444 211.139 280.644 212.672 279.597 213.294C278.55 213.917 277.464 212.856 277.192 215.194C276.917 217.536 276.703 218.369 275.964 218.9C275.225 219.428 274.475 219.192 274.769 220.85C274.95 221.858 275.167 222.806 275.306 223.386Z" fill="#41AAF7"/>
<path d="M265.678 248.964C269.664 248.964 271.344 245.78 272.008 242.403C268.103 240.922 263.181 238.547 259.1 234.969C258.856 237.369 258.069 248.964 265.678 248.964Z" fill="#CCE9FF"/>
</svg>
