<svg width="300" height="300" viewBox="0 0 300 300" fill="none" xmlns="http://www.w3.org/2000/svg">
<path opacity="0.5" d="M101.942 138.533C101.914 140.378 100.395 141.85 98.5501 141.822L64.6279 141.303C62.7835 141.275 61.3112 139.756 61.339 137.911L61.7529 110.797C61.7807 108.953 63.3001 107.481 65.1446 107.508L99.0668 108.028C100.911 108.056 102.383 109.575 102.356 111.419L101.942 138.533Z" fill="#FFBE55"/>
<path d="M61.6806 95.0334C70.7273 95.0334 78.0611 87.6995 78.0611 78.6528C78.0611 69.6061 70.7273 62.2723 61.6806 62.2723C52.6339 62.2723 45.3 69.6061 45.3 78.6528C45.3 87.6995 52.6339 95.0334 61.6806 95.0334Z" fill="#FFBE55"/>
<path d="M46.7945 219.836C36.164 219.675 27.6473 210.892 27.8084 200.261C27.9695 189.63 36.7528 181.114 47.3834 181.275C58.014 181.436 66.5306 190.219 66.3695 200.85C66.2084 211.48 57.4251 220 46.7945 219.836ZM47.3778 181.733C36.9973 181.575 28.4251 189.889 28.2667 200.269C28.1084 210.65 36.4223 219.222 46.8028 219.38C57.1806 219.539 65.7556 211.225 65.914 200.844C66.0723 190.467 57.7556 181.892 47.3778 181.733Z" fill="#FFBE55"/>
<path opacity="0.25" d="M154.592 284.069C220.705 284.069 274.3 277.142 274.3 268.597C274.3 260.052 220.705 253.125 154.592 253.125C88.4786 253.125 34.8833 260.052 34.8833 268.597C34.8833 277.142 88.4786 284.069 154.592 284.069Z" fill="#0E538C"/>
<path d="M191.883 246.314C190.795 246.314 189.908 245.431 189.908 244.339V29.8001C189.908 28.7112 190.792 27.8251 191.883 27.8251C192.972 27.8251 193.858 28.7084 193.858 29.8001V244.339C193.856 245.431 192.972 246.314 191.883 246.314Z" fill="#D3D3D3"/>
<path d="M194.52 269.461H188.903C188.342 269.461 187.881 269.003 187.881 268.439V235.739C187.881 235.178 188.339 234.717 188.903 234.717H194.52C195.081 234.717 195.542 235.175 195.542 235.739V268.439C195.539 269 195.081 269.461 194.52 269.461Z" fill="#0E538C"/>
<path d="M174.339 268.208V262.592C174.339 262.031 174.797 261.57 175.361 261.57H208.061C208.622 261.57 209.083 262.028 209.083 262.592V268.208C209.083 268.77 208.625 269.231 208.061 269.231H175.361C174.8 269.231 174.339 268.772 174.339 268.208Z" fill="#0E538C"/>
<path d="M233.45 42.8806H149.972C148.822 42.8806 147.883 41.9945 147.883 40.9112C147.883 39.8278 148.822 38.9417 149.972 38.9417H233.45C234.6 38.9417 235.539 39.8278 235.539 40.9112C235.539 41.9945 234.6 42.8806 233.45 42.8806Z" fill="#FFBE55"/>
<path d="M233.45 145.147H149.972C148.822 145.147 147.883 144.261 147.883 143.178C147.883 142.095 148.822 141.208 149.972 141.208H233.45C234.6 141.208 235.539 142.095 235.539 143.178C235.539 144.261 234.6 145.147 233.45 145.147Z" fill="#FFBE55"/>
<path d="M233.45 42.8806H149.972V141.206H233.45V42.8806Z" fill="#FFF5D4"/>
<path d="M191.711 65.4529C177.025 65.4529 165.119 77.3584 165.119 92.0445C165.119 106.731 177.025 118.636 191.711 118.636C206.397 118.636 218.303 106.731 218.303 92.0445H191.711V65.4529Z" fill="#0E538C"/>
<path d="M193.855 63.5112V90.1028H220.447C220.45 75.4167 208.544 63.5112 193.855 63.5112Z" fill="#FFBE55"/>
<path d="M119.825 64.489C120.05 66.714 120.319 68.9334 120.631 71.139C120.933 73.3473 121.286 75.5445 121.711 77.7195C122.55 82.0695 123.664 86.3584 125.283 90.4112C126.903 94.4473 129.1 98.2695 132.219 101.178C133.783 102.614 135.586 103.783 137.561 104.606C139.533 105.436 141.683 105.9 143.878 106.028C144.294 106.053 144.614 106.408 144.589 106.825C144.567 107.217 144.244 107.522 143.861 107.536C141.522 107.614 139.131 107.333 136.839 106.608C134.547 105.889 132.389 104.714 130.481 103.233C128.572 101.75 126.939 99.9529 125.528 98.0306C124.117 96.1056 122.922 94.0445 121.886 91.9279C120.847 89.8112 119.978 87.6279 119.214 85.4195C118.45 83.2112 117.789 80.9778 117.211 78.7306C116.644 76.4806 116.153 74.2195 115.717 71.9501C115.286 69.6806 114.919 67.4056 114.589 65.1306C114.378 63.689 115.378 62.3473 116.819 62.139C118.261 61.9278 119.603 62.9278 119.811 64.3695C119.817 64.4056 119.819 64.439 119.825 64.4751V64.489Z" fill="#FAB9AF"/>
<path d="M125.866 81.3889L121.68 85.6584L120.872 86.4834C120.872 86.4834 115.114 77.7972 114.716 72.375C114.525 69.775 113.661 67.3889 113.708 65.5167C113.73 64.5917 113.975 63.7945 114.633 63.1611C115.283 62.5278 116.336 62.0584 117.972 61.7778C118.319 61.7195 119.903 63.3639 120.458 64.675C120.472 64.7056 120.483 64.7417 120.494 64.7834C120.991 66.4778 120.655 76.5445 125.866 81.3889Z" fill="#F4B251"/>
<path d="M86.3026 235.822C86.3026 235.822 81.6498 246.528 80.7304 248.289C79.972 249.742 78.5276 250.639 77.1554 251.536C76.7165 251.822 76.2443 252.517 75.847 253.1C75.5276 253.57 75.4943 254.15 75.6748 254.689C78.8304 264.095 89.1526 268.131 89.4165 267.439C89.8943 266.189 88.4165 263.611 86.2665 262.278C84.1026 260.939 82.8998 258.467 82.8748 255.92C82.8554 253.895 83.3582 251.897 84.3332 250.125L91.2109 238.833L86.3026 235.822Z" fill="#FA968C"/>
<path d="M125.555 234.089L129.028 247.831C129.825 251.367 129.322 255.081 127.622 258.281V258.283C126.667 260.072 127.517 262.289 129.428 262.972C135.605 265.175 147.583 269.367 148.117 268.914C150.839 266.606 143.642 262.806 138.322 258.806C134.736 256.108 133.453 238.539 133.133 228.903L127.342 235.344C126.894 235.472 125.68 233.644 125.555 234.089Z" fill="#FA968C"/>
<path d="M137.108 262.097C139.667 262.939 142.469 263.211 145.039 263.528C145.333 263.564 145.617 263.678 145.85 263.861C148.314 265.77 149.558 267.692 148.114 268.917C147.628 269.328 138.194 269.433 131.205 263.608C130.911 263.364 130.497 266.686 130.497 266.686L127.247 266.286C127.247 266.286 126.322 260.714 126.897 259.639L127.944 257.681C130.814 259.503 133.867 261.031 137.108 262.097Z" fill="#0E538C"/>
<path d="M109.383 121.194C102.558 121.933 96.5443 129.608 97.4943 138.394C98.0387 143.444 102.217 161.58 106.964 175.955C108.786 181.472 107.805 187.644 103.98 192.017C103.358 192.728 102.814 193.469 102.375 194.225C100.117 198.117 91.2026 221.233 85.9165 236.675C86.2443 238.725 87.3887 241.344 88.8915 242.286C97.7943 229.297 112.344 205.536 114.744 201.397C116.078 199.097 117.539 196.436 118.619 193.93C124.347 186.775 124.425 145.897 123.544 137.744C122.594 128.958 116.211 120.458 109.383 121.194Z" fill="#FA968C"/>
<path d="M132.919 236.408C133.241 236.211 133.422 235.845 133.411 235.47C132.978 220.383 132.061 201.156 131.728 197.47C131.689 197.047 131.639 196.633 131.578 196.225C134.811 178.392 135.3 140.056 135.619 133.342C136.041 124.514 130.725 114.553 123.866 114.225C117.008 113.897 109.564 120.994 107.361 129.083C105.908 134.419 111.528 162.822 117.614 183.408C118.894 187.742 119.097 192.3 118.453 196.772C118.005 199.867 117.872 203.053 118.091 205.489C118.419 209.117 122.48 223.883 126.289 236.528C126.4 236.895 126.691 237.183 127.064 237.267C129.039 237.697 131.097 237.517 132.919 236.408Z" fill="#FA968C"/>
<path d="M82.5527 259.881C84.361 261.792 86.636 263.308 88.6888 264.758C88.9249 264.925 89.1138 265.156 89.2333 265.422C90.4833 268.242 90.6833 270.517 88.8999 270.95C88.2999 271.095 80.1888 266.9 76.8305 258.542C76.6888 258.192 74.8416 260.956 74.8416 260.956L72.2444 259.122C72.2444 259.122 73.9583 253.745 74.9305 253.05L76.7055 251.783C78.3361 254.711 80.261 257.458 82.5527 259.881Z" fill="#0E538C"/>
<path d="M134.878 193.136H99.8612C99.8612 193.136 74.6168 111.703 113.706 111.703C152.795 111.703 134.878 169.114 134.878 193.136Z" fill="#0E538C"/>
<path d="M99.8103 72.0522C105.59 71.8526 110.068 65.6454 109.81 58.1879C109.553 50.7304 104.658 44.8466 98.878 45.0462C93.0979 45.2457 88.6208 51.453 88.8782 58.9105C89.1357 66.368 94.0301 72.2517 99.8103 72.0522Z" fill="#0E538C"/>
<path d="M109.194 40.2555C109.194 40.2555 115.211 43.7583 114.667 48.7749C114.667 48.7749 117.736 46.4388 118.183 38.7416C118.494 33.4111 109.194 40.2555 109.194 40.2555Z" fill="#0E538C"/>
<path d="M123.003 94.6333C124.105 87.2277 118.825 77.5527 117.58 72.7777C116.783 69.7194 116.728 62.8138 116.728 62.8138L97.8276 65.8944C94.4776 66.4777 92.1998 69.611 92.6859 72.9777C93.5359 78.861 98.5526 91.7083 101.283 98.4166L123.003 94.6333Z" fill="#FAB9AF"/>
<path d="M100.517 107.694C101.053 104.578 100.819 101.383 99.8417 98.375C97.575 91.3917 93.4445 78.2111 92.6112 72.4556C92.1667 69.3806 94.2528 66.5195 97.3139 65.9861L100.311 65.4639C101.914 67.9139 104.686 69.5361 108.447 68.8806C111.072 68.425 112.722 67.1917 113.708 65.5167C114.128 64.8028 114.428 64.0111 114.633 63.1611C115.283 62.5278 116.336 62.0584 117.972 61.7778C118.319 61.7195 119.903 63.3639 120.458 64.675C120.472 64.7056 120.483 64.7417 120.494 64.7834C119.253 69.875 117.606 74.4 122.3 77.5528C122.008 80.3639 121.814 83.175 121.681 85.6584C121.644 86.3778 121.611 87.0695 121.583 87.725C121.417 91.6861 124.758 100.117 126.889 103.461C128.347 105.747 132.05 117.903 133.303 120.814L95.2139 123.136L100.517 107.694Z" fill="#FFBE55"/>
<path d="M111.147 65.0111L101.814 65.6444L102.967 55.1083L109.022 54.8083L111.147 65.0111Z" fill="#FAB9AF"/>
<path d="M109.022 54.8083L102.967 55.1083L102.605 58.3972C104.194 59.6638 106.461 62.5972 108.619 62.2222C109.303 62.1027 109.894 61.8 110.392 61.3472L109.022 54.8083Z" fill="#FA968C"/>
<path d="M109.736 59.8694C107.694 59.9388 105.45 58.9944 102.317 56.4416C100.517 54.975 99.1304 52.3583 99.0693 50.5611L98.7249 40.6166L114.033 40.0889C114.033 40.0889 115.364 45.3277 114.43 50.6055C113.73 54.5666 111.342 59.8138 109.736 59.8694Z" fill="#FAB9AF"/>
<path d="M100.461 49.5695C100.794 51.4834 100.15 53.1917 99.0195 53.389C97.8889 53.5862 96.2083 51.2973 95.875 49.3834C95.5417 47.4695 96.6833 46.6612 97.8139 46.464C98.9417 46.2667 100.128 47.6584 100.461 49.5695Z" fill="#FAB9AF"/>
<path d="M96.8804 41.8861C96.7721 38.7805 99.2054 36.1778 102.308 36.0722L107.475 35.8972C108.953 35.8472 110.372 35.4111 111.605 34.6528C113.394 33.5555 115.708 33.8194 117.011 35.4639C118.419 37.2417 119.083 39.6639 115.753 42.0417C114.097 43.225 111.575 42.0639 109.944 42.6611C109.842 42.6611 109.75 42.6472 109.644 42.65L105.089 42.8083C103.505 42.8639 102.339 44.1972 102.35 45.7833C102.355 46.7861 101.564 47.6167 100.555 47.65L100.353 47.6583L99.5443 45.3472L97.1193 48.8639L96.8804 41.8861Z" fill="#0E538C"/>
<path d="M147.516 102.836C147.516 102.836 142.275 104.111 142.133 105.842C141.992 107.572 142.214 108.758 144.722 109.058C147.23 109.358 150.816 108.572 152.872 107.672C154.928 106.772 157.736 103.808 157.825 103.292C158.155 101.414 154.605 103.436 152.836 104.333C151.069 105.228 148.983 106.064 148.791 105.092C148.6 104.119 152.116 102.658 152.266 101.472C152.419 100.283 147.516 102.836 147.516 102.836Z" fill="#FAB9AF"/>
<path d="M112.886 39.9528C112.45 42.2416 113.253 43.4583 105.928 47.2611C98.6055 51.0639 96.1944 49.6305 94.0027 53.5278C94.0027 53.5278 94.7999 47.1694 98.8388 44.8583C102.878 42.5472 109.961 40.8805 112.075 35.7778C112.075 35.7778 113.183 38.3889 112.886 39.9528Z" fill="#0E538C"/>
<path d="M97.5721 70.0333L97.4277 70.5L97.2805 71.0083C97.1832 71.35 97.0916 71.6972 96.9971 72.0472C96.811 72.7444 96.6416 73.4472 96.486 74.1555C96.1721 75.5694 95.9221 76.9972 95.7249 78.425C95.3193 81.2777 95.1832 84.15 95.4388 86.925C95.7055 89.6861 96.3666 92.3722 97.686 94.6111C98.3388 95.7333 99.1444 96.7444 100.1 97.6083C101.055 98.4694 102.161 99.1861 103.372 99.7555C105.794 100.906 108.625 101.397 111.492 101.544C112.933 101.594 114.389 101.589 115.853 101.472C116.219 101.442 116.586 101.433 116.953 101.394L118.053 101.283C118.789 101.222 119.522 101.097 120.255 101.003C123.194 100.575 126.125 99.9194 129.033 99.1583C131.947 98.4055 134.83 97.5055 137.708 96.5639L137.717 96.5611C138.114 96.4305 138.539 96.6472 138.669 97.0444C138.792 97.4166 138.605 97.8166 138.255 97.9694C132.655 100.425 126.88 102.586 120.797 103.933C117.758 104.606 114.636 105.069 111.436 105.114C109.836 105.139 108.214 105.039 106.589 104.803C104.964 104.569 103.33 104.158 101.747 103.525C100.167 102.892 98.6277 102.039 97.2749 100.922C95.9166 99.8111 94.7388 98.4722 93.7944 97.0111C93.3138 96.2833 92.9082 95.5166 92.536 94.7388C92.186 93.9555 91.8666 93.1611 91.611 92.3527C91.0916 90.7416 90.7416 89.1027 90.5332 87.4666C90.1388 84.1916 90.2193 80.9472 90.5777 77.7722C90.7582 76.1833 91.0277 74.6111 91.3499 73.0527C91.511 72.2722 91.6888 71.4972 91.886 70.7222C91.986 70.3361 92.0916 69.9472 92.2027 69.5611L92.3749 68.975L92.5694 68.3555C93.0055 66.9666 94.486 66.1916 95.8777 66.6277C97.2666 67.0638 98.0416 68.5444 97.6055 69.9361L97.5721 70.0333Z" fill="#FAB9AF"/>
<path d="M111.469 40.4278C111.469 40.4278 112.017 48.0695 118.831 51.5139C118.831 51.5139 115.683 45.8334 115.756 42.0445C115.828 38.2556 110.939 37.8278 111.469 40.4278Z" fill="#0E538C"/>
<path d="M139.839 94.4332C139.839 94.4332 135.241 93.3027 134.725 95.1055C134.208 96.9055 134.116 98.2943 136.108 99.8193C138.1 101.344 141.222 102.211 143.119 102.219C145.014 102.23 148.005 100.369 148.2 99.8555C148.905 97.986 145.522 98.4721 143.864 98.5943C142.205 98.7166 140.3 98.6221 140.369 97.4805C140.439 96.3388 143.661 96.4416 144.058 95.2332C144.453 94.0193 139.839 94.4332 139.839 94.4332Z" fill="#FAB9AF"/>
<path d="M132.669 96.6194L134.753 101.828L133.319 102.481L131.628 97.0111L132.669 96.6194Z" fill="#D3D3D3"/>
<path d="M96.8167 87.6001L90.2639 90.4251C90.2639 90.4251 88.2195 80.2056 89.9028 75.0362C91.5861 69.8667 90.2028 64.4556 98.0167 66.7417C99.2222 67.4639 93.7528 80.9889 96.8167 87.6001Z" fill="#FFBE55"/>
<path d="M98.811 52.7222V54.5861" stroke="#D3D3D3" stroke-width="2" stroke-miterlimit="10"/>
<path d="M98.811 57.25C99.0427 57.25 99.2305 56.653 99.2305 55.9167C99.2305 55.1803 99.0427 54.5833 98.811 54.5833C98.5794 54.5833 98.3916 55.1803 98.3916 55.9167C98.3916 56.653 98.5794 57.25 98.811 57.25Z" stroke="#D3D3D3" stroke-width="2" stroke-miterlimit="10"/>
</svg>
