<svg width="300" height="300" viewBox="0 0 300 300" fill="none" xmlns="http://www.w3.org/2000/svg">
<path d="M41.2473 272.303C22.4751 257.65 26.3584 238.878 23.1223 222.695C19.8862 206.511 34.775 185.147 26.3584 172.847C17.9417 160.547 16.1806 145.5 31.95 133.928C47.7195 122.356 222.483 131.975 222.483 131.975C222.483 131.975 282.378 197.145 269.803 231.472C257.228 265.8 276.044 272.303 276.044 272.303H41.2473Z" fill="#EBF7FF"/>
<path d="M23.6277 142.531C35.7082 107.964 49.6249 68.1056 59.0277 65.4667C68.4305 62.8278 90.3721 105.431 92.8805 109.206C99.1499 91.6667 116.411 44.0195 131.917 40.8862C155.572 44.6473 178.142 115.056 178.142 115.056C178.142 115.056 197.322 62.3195 207.794 58.8139C225.161 65.3389 255.147 142.533 255.147 142.533H23.6277V142.531Z" fill="#F2F2F2"/>
<path d="M193.778 63.0806C188.764 58.3362 182.678 57.0056 175.153 57.3584C173.919 57.4167 172.542 57.6223 171.831 58.4751C171.122 59.3278 171.889 60.8834 173.089 60.6445C164.589 56.6223 154.456 55.1112 144.833 56.4278C143.769 56.5723 142.611 56.8056 141.978 57.5389C141.342 58.2723 141.764 59.6139 142.842 59.6251C134.936 56.3445 120.683 62.6778 122.111 63.225L193.778 63.0806Z" fill="#DCF2FF"/>
<path d="M60.7554 280.686C52.7638 265.48 38.0221 253.986 21.3276 249.939C33.1276 262.364 46.2249 273.555 60.336 283.272L60.7554 280.686Z" fill="#1A87D8"/>
<path d="M66.3249 285.683C47.1943 270.3 33.5804 248.2 28.4443 224.194C43.4471 243.48 56.5193 264.267 67.4027 286.144L66.3249 285.683Z" fill="#2A94F4"/>
<path d="M62.5777 287.442C58.8472 275.73 55.0999 263.928 53.686 251.719C52.2722 239.511 53.3305 226.719 58.8277 215.728C66.811 239.608 67.8138 265.778 61.6777 290.197L62.5777 287.442Z" fill="#1A87D8"/>
<path d="M63.4359 288.339C49.4359 268.136 43.6164 242.433 47.5442 218.172C60.0331 238.88 61.2025 264.244 62.0303 288.414L63.4359 288.339Z" fill="#B0E1FF"/>
<path d="M62.1443 279.767C58.7943 259.547 66.836 237.822 82.5443 224.658C80.7221 246.278 73.1832 267.389 60.8943 285.267L62.1443 279.767Z" fill="#2A94F4"/>
<path d="M276.403 272.997C270.85 263.144 260.925 255.864 249.861 253.522C257.867 261.472 266.703 268.583 276.178 274.708L276.403 272.997Z" fill="#1A87D8"/>
<path d="M280.164 276.178C267.275 266.425 257.889 252.142 254.044 236.442C264.292 248.844 273.297 262.272 280.881 276.461L280.164 276.178Z" fill="#2A94F4"/>
<path d="M277.731 277.408C275.05 269.772 272.356 262.078 271.189 254.069C270.022 246.061 270.472 237.622 273.878 230.283C279.594 245.844 280.758 263.05 277.192 279.239L277.731 277.408Z" fill="#1A87D8"/>
<path d="M278.314 277.98C268.711 264.955 264.383 248.15 266.5 232.105C275.12 245.494 276.378 262.164 277.389 278.055L278.314 277.98Z" fill="#B0E1FF"/>
<path d="M277.297 272.364C274.703 259.122 279.575 244.667 289.658 235.7C288.878 249.964 284.322 264.003 276.578 276.008L277.297 272.364Z" fill="#2A94F4"/>
<path d="M275.378 290.236H40.3945C32.1056 290.236 29.0223 276.356 36.1223 270.925C61.489 251.517 121.881 237.792 177.314 237.792C235.597 237.792 270.656 252.967 282.164 273.964C285.925 280.828 281.964 290.236 275.378 290.236Z" fill="#F2F2F2"/>
<path d="M214.456 262.958C214.456 262.958 211.578 260.381 208.517 260.686C205.456 260.992 203.425 264.769 204.036 267.217C204.647 269.664 208.369 270.608 212.942 271.528C217.514 272.447 224.045 273.058 223.228 270.303C222.97 269.428 222.881 268.431 222.883 267.478C222.886 265.258 221.161 263.422 218.947 263.269L214.456 262.958Z" fill="#0E538C"/>
<path d="M245.489 262.958C245.489 262.958 242.611 260.381 239.55 260.686C236.489 260.992 234.458 264.769 235.069 267.217C235.68 269.664 239.403 270.608 243.975 271.528C248.547 272.447 255.078 273.058 254.261 270.303C254.003 269.428 253.914 268.431 253.917 267.478C253.919 265.258 252.194 263.422 249.98 263.269L245.489 262.958Z" fill="#0E538C"/>
<path d="M250.797 224.747C251.719 242.103 250.9 265.433 250.9 265.433H243.153C243.153 265.433 241.181 246.636 238.892 224.747C237.489 211.333 235.967 196.758 234.708 184.639C233.144 169.586 231.986 158.317 231.964 157.778C231.964 157.778 235.317 156.717 239.497 155.814C246.158 154.372 254.925 153.331 255.6 157.617C256.653 164.281 250.475 195.32 248.431 208.003C249.678 210.922 250.4 217.283 250.797 224.747Z" fill="#F7C39F"/>
<path d="M235.455 181.622C232.844 191.861 227.494 203.633 225.833 208.989C226.675 211.233 226.53 217.35 225.919 224.747C224.542 241.447 220.811 264.683 220.811 264.683C220.811 264.683 217.433 266.372 212.944 264.683C213.547 252.108 214.417 238.197 215.35 224.747C217.675 191.242 220.408 160.592 220.408 160.592C220.408 160.592 229.594 149.061 239.497 155.814C239.514 162.15 238.25 170.681 235.455 181.622Z" fill="#FCD2B1"/>
<path d="M225.919 224.747C224.542 241.447 220.811 264.683 220.811 264.683C220.811 264.683 217.433 266.372 212.944 264.683C213.547 252.108 214.417 238.197 215.35 224.747H225.919Z" fill="#FFBE55"/>
<path d="M250.903 265.433H243.156C243.156 265.433 241.183 246.636 238.895 224.747H250.8C251.722 242.1 250.903 265.433 250.903 265.433Z" fill="#FFBE55"/>
<path d="M222.597 118.389L212.07 174.558C212.07 174.558 259.172 175.925 262.656 173.386C262.27 163.461 257.503 127.775 249.017 118.386C240.531 108.997 222.597 118.389 222.597 118.389Z" fill="#CCE9FF"/>
<path d="M203.697 54.0501L210.858 47.8724C210.858 47.8724 220.558 45.9696 223.55 45.514C222.189 47.6001 213.942 50.3196 214.214 50.3196C216.933 50.2279 219.894 50.2279 220.408 50.6835C220.197 51.5001 212.219 52.5862 211.222 52.9501C210.225 53.4946 205.511 57.0501 205.511 57.0501L203.697 54.0501Z" fill="#FCD2B1"/>
<path d="M227.864 67.1806C227.864 67.1806 230.308 66.65 230.639 67.1806C230.969 67.7111 231.964 69.6223 229.25 71.8806C232.967 72.2278 238.353 70.8084 239.222 67.5639C240.092 64.3195 238.6 60.8445 238.6 60.8445L234.789 58.6056L227.864 67.1806Z" fill="#FCD2B1"/>
<path d="M223.758 51.0584C222.092 50.4195 220.8 48.8723 220.483 47.1168C220.167 45.3584 220.847 43.4529 222.214 42.3056C223.369 41.3362 224.914 40.9279 226.422 40.889C227.93 40.8501 229.425 41.1473 230.903 41.4445C234.144 42.0973 237.717 42.9584 239.572 45.6945C241.392 48.3779 240.93 51.939 240.397 55.1362C240.008 57.4695 239.469 60.0529 237.539 61.4168C235.855 62.6056 233.494 62.4862 231.658 61.5473C229.822 60.6084 228.439 58.9779 227.294 57.264C226.153 55.5501 225.197 53.7056 223.944 52.0723L223.758 51.0584Z" fill="#0B4870"/>
<path d="M235.361 58.6084C237.019 57.7779 238.378 55.064 237.247 53.7834C236.117 52.5029 234.383 54.2362 234.23 54.839C234.08 55.4417 235.361 58.6084 235.361 58.6084Z" fill="#FFE3CA"/>
<path d="M223.269 47.3723C222.325 50.5612 220.967 65.0862 226.164 67.5668C231.419 66.8001 234.667 62.6668 235.611 57.4696C235.611 57.4696 235.905 42.9418 223.269 47.3723Z" fill="#FFE3CA"/>
<path d="M221.6 45.0446C223.27 47.3696 230.981 57.4835 238.603 55.5779C238.128 49.6724 233.986 39.7113 221.6 45.0446Z" fill="#0B4870"/>
<path d="M233.878 55.9639L235.611 52.7612L234.745 52.1362L233.042 55.4639L233.878 55.9639Z" fill="#FFBE55"/>
<path d="M225.833 74.1917C228.239 70.2723 236.522 66.4917 241.775 67.4029C247.03 68.314 245.961 76.5973 245.961 76.5973L225.833 74.1917Z" fill="#CCE9FF"/>
<path d="M246.05 120.222H222.375C222.375 120.222 222.586 118.603 222.394 113.722C222.389 113.572 222.383 113.42 222.375 113.267C222.178 108.67 221.497 105.108 220.811 102.2C219.453 96.4473 218.078 93.2334 220.408 89.5695C170.278 69.4889 203.558 53.3223 203.558 53.3223C203.558 53.3223 207.2 55.45 208.178 55.9667C191.364 72.4778 225.831 74.1945 225.831 74.1945C225.831 74.1945 235.008 75.2917 245.958 76.6C256.908 77.9084 246.05 120.222 246.05 120.222Z" fill="#2A94F4"/>
<path d="M275.303 133.286C268.242 139.914 246.208 137.028 241.269 135.633C241.122 135.592 240.989 135.553 240.872 135.514C237.164 135.367 232.856 132.989 228.992 128.092C220.764 95.7861 229.839 76.5556 233.561 71.7028C233.603 71.6528 233.639 71.6028 233.678 71.5528C233.678 71.5528 238.494 65.6084 255.414 66.6473C272.336 67.6861 274.264 118.444 275.303 133.286Z" fill="#0E538C"/>
<path d="M225.647 108.083C225.647 108.083 225.55 115.77 225.456 119.081C225.061 119.206 223.733 116.608 222.394 113.72C222.389 113.57 222.383 113.417 222.375 113.264C222.178 108.667 221.497 105.106 220.811 102.197C222.414 104.331 224.711 107.3 225.647 108.083Z" fill="#FFBE55"/>
<path d="M233.2 72.2028C233.2 72.2028 228.258 72.1417 224.961 74.1334C226.958 75.1528 230.342 77.5028 230.342 77.5028C230.342 77.5028 232.967 72.525 233.2 72.2028Z" fill="#FFBE55"/>
<path d="M256.575 66.5252C265.681 69.9974 270.528 80.4752 269.714 87.3946C268.9 94.314 253.261 104.197 240.872 85.9863C240.078 80.4418 238.928 71.6279 233.681 71.5529C235.481 65.1113 256.575 66.5252 256.575 66.5252Z" fill="#2A94F4"/>
<path d="M253.419 112.395C250.147 113.447 247.194 122.567 248.958 132.117C250.255 136.661 250.808 138.492 255.122 139.383C256.189 132.395 255.411 114.528 253.419 112.395Z" fill="#1B82CE"/>
<path d="M253.128 117.578C254.192 120.108 253.7 139.078 255.122 139.383C257.867 139.281 273.706 137.997 276.045 133.22C275.333 122.65 276.595 113.711 274.592 112.692C269.945 111.675 253.486 115.25 253.128 117.578Z" fill="#2A94F4"/>
<path d="M253.889 112.208C260.319 110.572 273.694 110.458 274.642 111.145C275.589 111.831 277.483 127.561 264.264 123.581C251.047 119.6 249.625 113.628 253.889 112.208Z" fill="#3FABFC"/>
<path d="M241.269 135.633C241.122 135.592 240.989 135.553 240.872 135.514C237.164 135.367 232.856 132.989 228.992 128.092C220.764 95.7862 229.839 76.5557 233.561 71.7029C238.036 76.6945 247.069 98.6751 241.269 135.633Z" fill="#0B4870"/>
<path d="M238.542 107.95C238.542 107.95 238.908 125.708 237.981 127.103C232.1 127.181 227.689 126.483 227.689 126.483L225.311 124.086L225.647 112.436C225.647 112.436 235.544 106.672 238.542 107.95Z" fill="#2A94F4"/>
<path d="M239.142 106.986C239.142 106.986 228.233 104.511 227.303 104.897C226.375 105.283 222.928 112.611 228.078 114.956C233.225 117.297 239.142 106.986 239.142 106.986Z" fill="#3FABFC"/>
<path d="M232.433 42.3251C231.256 39.2112 238.267 34.814 242.683 33.864C247.1 32.914 251.895 33.6973 256.239 34.8029C259.167 35.5473 262.225 36.5667 263.686 38.4834C265.686 41.1029 263.936 44.3667 261.439 46.7695C258.942 49.1695 255.664 51.2584 254.156 54.0306C252.311 57.4223 253.453 61.2528 255.383 64.6223C257.314 67.9917 260.014 71.1529 261.403 74.6473C262.083 76.3612 262.428 78.2278 261.545 79.8945C260.125 82.5751 255.631 84.0945 251.564 83.7167C247.497 83.339 243.989 81.3667 241.842 78.9334C239.694 76.5001 238.753 73.6417 238.239 70.8056C237.4 66.164 237.633 61.4278 238.928 56.839C239.647 54.289 240.694 51.7362 240.478 49.1417C240.261 46.5473 238.444 43.814 235.011 42.8001L232.433 42.3251Z" fill="#0B4870"/>
<path d="M259.65 94.4112C260.917 94.4112 261.944 93.3839 261.944 92.1168C261.944 90.8496 260.917 89.8223 259.65 89.8223C258.383 89.8223 257.355 90.8496 257.355 92.1168C257.355 93.3839 258.383 94.4112 259.65 94.4112Z" fill="#CCE9FF"/>
<path d="M269.803 126.372C270.99 126.372 271.953 125.41 271.953 124.222C271.953 123.035 270.99 122.072 269.803 122.072C268.615 122.072 267.653 123.035 267.653 124.222C267.653 125.41 268.615 126.372 269.803 126.372Z" fill="#CCE9FF"/>
<path d="M229.266 114.626C229.534 113.469 228.956 112.347 227.974 112.119C226.992 111.891 225.979 112.644 225.71 113.801C225.442 114.957 226.02 116.08 227.002 116.308C227.984 116.536 228.997 115.783 229.266 114.626Z" fill="#CCE9FF"/>
<path d="M46.461 51.5833C54.3572 51.5833 60.7583 45.1822 60.7583 37.2861C60.7583 29.39 54.3572 22.9889 46.461 22.9889C38.5649 22.9889 32.1638 29.39 32.1638 37.2861C32.1638 45.1822 38.5649 51.5833 46.461 51.5833Z" fill="#FFBE55"/>
<path d="M33.9971 122.008L31.2166 143.864H36.7749L33.9971 122.008Z" fill="#2A94F4"/>
<path d="M36.775 130.361L35.0583 143.864H38.4917L36.775 130.361Z" fill="#0E538C"/>
<path d="M203.069 124.706L200.292 146.561H205.847L203.069 124.706Z" fill="#2A94F4"/>
<path d="M164.703 119.822L163.314 130.75H166.092L164.703 119.822Z" fill="#0E538C"/>
<path d="M166.667 115.3L164.703 130.75H168.631L166.667 115.3Z" fill="#2A94F4"/>
<path d="M86.8222 96.3667L84.6777 113.228H88.9666L86.8222 96.3667Z" fill="#0E538C"/>
<path d="M88.9667 101.4L87.4556 113.286H90.4778L88.9667 101.4Z" fill="#2A94F4"/>
<path d="M197.878 101.4L196.367 113.286H199.389L197.878 101.4Z" fill="#2A94F4"/>
<path d="M199.872 97.5972L197.878 113.286H201.867L199.872 97.5972Z" fill="#0B4870"/>
<path d="M205.847 133.061L204.133 146.561H207.564L205.847 133.061Z" fill="#0E538C"/>
<path d="M120.175 33.6C116.489 30.1111 112.014 29.1333 106.481 29.3916C105.575 29.4333 104.561 29.5861 104.039 30.2111C103.517 30.8361 104.081 31.9805 104.964 31.8055C98.714 28.85 91.2612 27.7361 84.1862 28.7055C83.4056 28.8139 82.5529 28.9833 82.0862 29.5222C81.6195 30.0611 81.9306 31.0472 82.7223 31.0555C76.9084 28.6444 66.4279 33.3 67.4779 33.7027L120.175 33.6Z" fill="#DCF2FF"/>
</svg>
