<svg width="300" height="300" viewBox="0 0 300 300" fill="none" xmlns="http://www.w3.org/2000/svg">
<path d="M58.2666 100.336C59.1527 103.375 60.3832 106.305 61.9388 109.055L57.5054 114.644C56.0582 116.472 56.2221 119.078 57.8499 120.722L65.4832 128.355C67.1304 130.003 69.7332 130.147 71.561 128.7L77.1138 124.303C79.9721 125.95 83.011 127.233 86.1777 128.139L87.011 135.283C87.2832 137.6 89.236 139.336 91.5527 139.336H102.353C104.669 139.336 106.622 137.6 106.894 135.283L107.692 128.392C111.092 127.505 114.35 126.183 117.405 124.467L122.778 128.717C124.605 130.164 127.211 130 128.855 128.372L136.489 120.739C138.136 119.092 138.28 116.489 136.833 114.661L132.655 109.361C134.392 106.358 135.75 103.155 136.653 99.8083L143.092 99.0666C145.408 98.7944 147.144 96.8416 147.144 94.5249V83.7249C147.144 81.4083 145.408 79.4555 143.092 79.1833L136.742 78.4416C135.872 75.1305 134.572 71.9666 132.905 68.9999L136.814 64.061C138.261 62.2333 138.097 59.6277 136.469 57.9833L128.853 50.3666C127.205 48.7194 124.603 48.5749 122.775 50.0222L117.98 53.8222C114.869 51.9944 111.542 50.6027 108.05 49.661L107.328 43.4555C107.055 41.1388 105.103 39.4027 102.786 39.4027H91.986C89.6693 39.4027 87.7165 41.1388 87.4443 43.4555L86.7221 49.661C83.1416 50.6194 79.7221 52.0666 76.5388 53.9666L71.5638 50.0222C69.736 48.5749 67.1304 48.7388 65.486 50.3666L57.8527 57.9999C56.2054 59.6472 56.061 62.2499 57.5082 64.0777L61.6693 69.3416C60.0054 72.3444 58.7388 75.5472 57.9054 78.8749L51.2471 79.636C48.9304 79.9083 47.1943 81.861 47.1943 84.1777V94.9777C47.1943 97.2944 48.9304 99.2472 51.2471 99.5194L58.2666 100.336ZM97.3943 71.1194C107.236 71.1194 115.25 79.1333 115.25 88.9749C115.25 98.8166 107.236 106.83 97.3943 106.83C87.5527 106.83 79.5388 98.8166 79.5388 88.9749C79.5388 79.1333 87.5554 71.1194 97.3943 71.1194Z" fill="#F7F7F7"/>
<path d="M204.161 102.994L198.464 98.1833C196.708 96.6999 194.122 96.7722 192.458 98.3472L189.311 101.297C186.653 100.014 183.83 99.1083 180.917 98.5833L180.03 94.2416C179.578 91.9972 177.497 90.4416 175.219 90.6249L167.783 91.2583C165.503 91.4583 163.714 93.3194 163.642 95.6166L163.497 100.03C160.639 101.061 157.944 102.472 155.483 104.244L151.719 101.747C149.803 100.48 147.25 100.842 145.767 102.597L140.955 108.33C139.472 110.086 139.544 112.672 141.117 114.336L144.408 117.844C143.269 120.414 142.455 123.108 141.983 125.875L137.28 126.833C135.036 127.286 133.48 129.367 133.664 131.644L134.297 139.08C134.497 141.361 136.358 143.15 138.655 143.222L143.739 143.386C144.661 145.811 145.875 148.108 147.339 150.261L144.5 154.547C143.233 156.464 143.594 159.017 145.35 160.5L151.047 165.311C152.803 166.794 155.389 166.722 157.053 165.147L160.78 161.655C163.222 162.794 165.792 163.644 168.433 164.153L169.464 169.253C169.917 171.497 171.997 173.053 174.275 172.869L181.711 172.236C183.992 172.036 185.78 170.175 185.853 167.878L186.017 162.886C188.73 161.928 191.3 160.625 193.669 159.014L197.775 161.728C199.692 162.994 202.242 162.633 203.728 160.878L208.539 155.18C210.022 153.425 209.95 150.839 208.375 149.175L205.064 145.667C206.275 143.097 207.164 140.383 207.669 137.597L212.192 136.675C214.436 136.222 215.992 134.142 215.808 131.864L215.175 124.428C214.975 122.147 213.114 120.358 210.817 120.286L206.275 120.142C205.333 117.5 204.067 115.005 202.494 112.689L204.972 108.961C206.278 107.047 205.917 104.478 204.161 102.994ZM176.142 145.978C168.111 146.667 161.019 140.678 160.35 132.644C159.661 124.614 165.65 117.522 173.683 116.853C181.714 116.167 188.805 122.153 189.475 130.186C190.161 138.217 184.172 145.308 176.142 145.978Z" fill="#F7F7F7"/>
<path d="M84.2805 165.983C82 166.219 80.2472 168.136 80.2278 170.433L80.1722 175.011C80.1361 177.308 81.8361 179.261 84.1166 179.553L87.4805 179.986C88.0416 182.031 88.8361 183.983 89.8694 185.831L87.7 188.508C86.2528 190.3 86.3611 192.867 87.9722 194.514L91.175 197.789C92.7861 199.436 95.3528 199.617 97.1805 198.206L99.875 196.125C101.775 197.247 103.783 198.133 105.881 198.747L106.242 202.219C106.478 204.5 108.394 206.253 110.692 206.272L115.269 206.328C117.567 206.364 119.519 204.664 119.811 202.383L120.228 199.092C122.508 198.531 124.678 197.681 126.739 196.558L129.272 198.603C131.064 200.05 133.633 199.942 135.278 198.331L138.553 195.128C140.2 193.517 140.381 190.95 138.969 189.122L137.033 186.608C138.228 184.619 139.15 182.503 139.783 180.278L142.786 179.969C145.067 179.733 146.819 177.817 146.839 175.519L146.892 170.942C146.928 168.644 145.228 166.692 142.947 166.4L140.017 166.019C139.456 163.811 138.625 161.678 137.539 159.689L139.367 157.444C140.814 155.653 140.706 153.086 139.094 151.439L135.892 148.164C134.281 146.517 131.714 146.336 129.886 147.747L127.697 149.431C125.636 148.183 123.428 147.222 121.114 146.572L120.825 143.733C120.589 141.453 118.672 139.7 116.375 139.681L111.797 139.625C109.5 139.589 107.547 141.289 107.256 143.569L106.894 146.392C104.506 147.006 102.208 147.947 100.075 149.178L97.8139 147.333C96.0222 145.886 93.4528 145.994 91.8083 147.606L88.5166 150.825C86.8694 152.436 86.6889 155.003 88.1 156.831L90.0361 159.328C88.9139 161.317 88.0278 163.433 87.45 165.658L84.2805 165.983ZM113.822 160.811C120.389 160.883 125.653 166.292 125.581 172.858C125.508 179.425 120.1 184.689 113.533 184.617C106.967 184.544 101.703 179.136 101.775 172.569C101.847 166.003 107.256 160.739 113.822 160.811Z" stroke="#F7F7F7" stroke-width="3" stroke-miterlimit="10"/>
<path d="M284.919 274.211H15.0806C13.25 274.211 11.75 272.714 11.75 270.881V253.256C11.75 251.425 13.2472 249.925 15.0806 249.925H284.919C286.75 249.925 288.25 251.422 288.25 253.256V270.881C288.25 272.714 286.753 274.211 284.919 274.211Z" fill="#F2F2F2"/>
<path d="M45.5139 259.772C51.9472 259.772 54.6639 254.633 55.7333 249.183C56.9389 243.033 56.0555 236.489 56.0555 236.489H34.9722C34.9722 236.489 34.9389 236.739 34.8944 237.183C34.5 241.053 33.2333 259.772 45.5139 259.772Z" fill="#B6E7FF"/>
<path d="M34.9722 236.489C34.9722 236.95 39.6916 237.322 45.5111 237.322C51.3333 237.322 56.0527 236.95 56.0527 236.489C56.0527 236.028 51.3333 235.656 45.5111 235.656C39.6916 235.656 34.9722 236.028 34.9722 236.489Z" fill="#85DDFF"/>
<path d="M16.9722 178.05C16.9722 178.05 28.0888 194.961 34.7583 205.283C41.4277 215.605 43.1749 217.75 43.9694 221.083C44.7638 224.419 45.4777 236.725 45.4777 236.725H45.9694C45.9694 236.725 45.7972 226.28 45.1972 222.764C44.6166 219.367 45.2388 218.144 45.7138 214.572C46.1916 211 46.8249 205.283 43.2138 201.311C39.5999 197.342 40.5527 193.45 39.2833 190.83C38.0138 188.211 28.1666 185.033 26.8972 182.336C25.6249 179.639 20.0666 177.972 16.9722 178.05Z" fill="#2A94F4"/>
<path d="M16.9722 178.05C16.9722 178.05 20.4666 182.019 22.8472 183.369C25.2305 184.719 26.3416 183.528 28.1666 186.783C29.9916 190.039 30.0638 191.467 31.7361 193.136C33.4083 194.803 35.3916 194.883 35.5527 198.536C35.7111 202.189 34.7583 205.286 34.7583 205.286C34.7583 205.286 17.6861 178.925 16.9722 178.05Z" fill="#41AAF7"/>
<path d="M44.5944 236.728H44.0971C44.0971 236.728 43.9471 233.347 42.6055 231.706C41.7388 230.647 38.061 229.444 34.4221 228.003C32.4194 227.208 30.4277 226.344 28.9277 225.389C24.6999 222.703 20.6694 214.047 20.3249 212.506C20.2027 211.969 20.1499 211.642 20.1527 211.419V211.414C20.161 211 20.3666 210.936 20.7221 210.519C20.8916 210.317 21.4082 210.386 22.036 210.578C23.861 211.133 25.3971 212.383 26.3527 214.033C27.2332 215.561 28.6444 217.469 30.3721 217.931C33.3555 218.728 33.1082 219.222 34.211 222.258C35.3082 225.294 38.086 225.789 41.5638 229.369C45.0444 232.947 44.5944 236.728 44.5944 236.728Z" fill="#2A94F4"/>
<path d="M34.4221 228C32.4194 227.205 30.4277 226.342 28.9277 225.386C24.6999 222.7 20.6694 214.044 20.3249 212.503C20.2027 211.967 20.1499 211.639 20.1527 211.417C20.1638 211.519 20.361 212.889 22.5638 213.797C24.8499 214.739 25.2971 214.739 25.5971 216.183C25.8944 217.625 26.1471 219.167 27.3388 219.467C28.5332 219.764 29.2777 218.422 30.2221 220.608C31.1694 222.797 31.6194 223.542 32.486 223.842C33.3555 224.139 34.0138 223.692 34.2082 225.383C34.3221 226.419 34.3888 227.397 34.4221 228Z" fill="#41AAF7"/>
<path d="M48.2499 236.728H48.8416C48.8416 236.728 49.9944 215.792 51.586 213.847C52.611 212.592 55.9944 210.344 60.3027 208.636C62.6749 207.697 65.0333 206.669 66.811 205.539C71.8194 202.358 76.5916 192.105 77.0027 190.28C77.1472 189.644 77.211 189.258 77.2083 188.994V188.986C77.1972 188.494 76.9527 188.419 76.5333 187.925C76.3305 187.686 75.7194 187.767 74.9749 187.994C72.8138 188.653 70.9916 190.13 69.8638 192.086C68.8194 193.894 67.1499 196.155 65.1055 196.7C61.5722 197.644 61.8638 198.23 60.561 201.825C59.261 205.419 55.9721 206.005 51.8527 210.247C47.7194 214.492 48.2499 236.728 48.2499 236.728Z" fill="#2A94F4"/>
<path d="M60.3 208.636C62.6723 207.697 65.0306 206.669 66.8084 205.539C71.8167 202.358 76.5889 192.105 77 190.28C77.1445 189.644 77.2084 189.258 77.2056 188.994C77.1917 189.114 76.9584 190.736 74.35 191.817C71.6417 192.933 71.1112 192.933 70.7584 194.644C70.4056 196.353 70.1084 198.18 68.6945 198.533C67.2806 198.886 66.3973 197.297 65.2806 199.886C64.1612 202.478 63.6278 203.361 62.5973 203.714C61.5695 204.067 60.7862 203.536 60.5584 205.542C60.4167 206.761 60.3389 207.922 60.3 208.636Z" fill="#41AAF7"/>
<path d="M45.5138 259.772C51.9472 259.772 54.6638 254.633 55.7333 249.183C49.4277 246.792 41.4861 242.958 34.8972 237.183C34.5 241.053 33.2333 259.772 45.5138 259.772Z" fill="#CCE9FF"/>
<path d="M267.997 259.772C272.047 259.772 273.758 256.536 274.431 253.105C275.192 249.233 274.633 245.114 274.633 245.114H261.361C261.361 245.114 261.342 245.269 261.311 245.553C261.064 247.989 260.267 259.772 267.997 259.772Z" fill="#B6E7FF"/>
<path d="M261.361 245.114C261.361 245.403 264.333 245.639 267.997 245.639C271.661 245.639 274.633 245.403 274.633 245.114C274.633 244.825 271.661 244.589 267.997 244.589C264.333 244.589 261.361 244.825 261.361 245.114Z" fill="#85DDFF"/>
<path d="M254.858 220.122C254.858 220.122 259.622 227.369 262.481 231.791C265.339 236.214 266.086 237.133 266.428 238.561C266.77 239.989 267.075 245.264 267.075 245.264H267.286C267.286 245.264 267.214 240.789 266.956 239.28C266.706 237.825 266.972 237.303 267.178 235.769C267.381 234.239 267.653 231.789 266.106 230.089C264.558 228.389 264.967 226.719 264.422 225.597C263.878 224.475 259.658 223.114 259.114 221.955C258.567 220.803 256.186 220.086 254.858 220.122Z" fill="#2A94F4"/>
<path d="M254.858 220.122C254.858 220.122 256.356 221.822 257.375 222.403C258.394 222.98 258.872 222.469 259.656 223.867C260.439 225.261 260.469 225.875 261.183 226.589C261.9 227.303 262.75 227.336 262.819 228.903C262.886 230.466 262.481 231.794 262.481 231.794C262.481 231.794 255.164 220.494 254.858 220.122Z" fill="#41AAF7"/>
<path d="M268.758 245.264H269.206C269.206 245.264 270.081 229.392 271.286 227.919C272.064 226.969 274.628 225.264 277.892 223.969C279.689 223.255 281.478 222.48 282.825 221.622C286.622 219.211 290.239 211.442 290.55 210.055C290.661 209.572 290.708 209.28 290.706 209.08V209.075C290.697 208.703 290.514 208.647 290.194 208.272C290.042 208.092 289.578 208.153 289.014 208.325C287.378 208.825 285.994 209.944 285.139 211.428C284.347 212.797 283.081 214.511 281.531 214.925C278.85 215.642 279.072 216.086 278.086 218.811C277.1 221.536 274.608 221.98 271.483 225.197C268.356 228.408 268.758 245.264 268.758 245.264Z" fill="#2A94F4"/>
<path d="M277.892 223.969C279.689 223.255 281.478 222.48 282.825 221.622C286.622 219.211 290.239 211.442 290.55 210.055C290.661 209.572 290.708 209.28 290.706 209.08C290.694 209.172 290.519 210.403 288.542 211.219C286.489 212.067 286.086 212.067 285.819 213.364C285.553 214.658 285.328 216.044 284.256 216.311C283.183 216.578 282.514 215.372 281.667 217.336C280.817 219.3 280.414 219.969 279.633 220.239C278.853 220.505 278.261 220.105 278.086 221.625C277.98 222.55 277.922 223.428 277.892 223.969Z" fill="#41AAF7"/>
<path d="M267.997 259.772C272.047 259.772 273.758 256.536 274.431 253.106C270.461 251.6 265.461 249.186 261.311 245.55C261.064 247.989 260.267 259.772 267.997 259.772Z" fill="#CCE9FF"/>
<path d="M213.55 75.7444L215.239 71.7222C215.239 71.7222 213.247 68.8249 211.986 68.2305C210.722 67.636 207.978 68.9527 207.978 68.9527L207.103 70.6083L207.769 73.0333L211.483 79.1361L214.528 77.5999L213.55 75.7444Z" fill="#FCD2B1"/>
<path d="M239.092 115.047C230.372 109.467 218.233 99.9722 215.397 76.1667C213.228 76 209.892 76.1667 209.892 76.1667C209.892 76.1667 212.508 110.289 232.558 121.236C234.656 122.381 237.78 133.114 240.278 133.689C240.933 131.425 239.092 115.047 239.092 115.047Z" fill="#0E538C"/>
<path d="M247.658 251.717L234.044 264.569L239.067 265.361C240.447 265.581 241.864 265.372 243.125 264.767L251.042 260.961V250.678L247.658 251.717Z" fill="#072735"/>
<path d="M229.725 253.111L223.297 255.075C220.75 255.853 218.428 257.233 216.528 259.1H236.761L235.811 250.683L229.725 253.111Z" fill="#072735"/>
<path d="M236.761 171.833C236.761 171.833 223.828 207.005 222.692 209.567C221.553 212.13 229.728 253.111 229.728 253.111H236.7L231.872 212.675L249.042 183.672L246.428 170.011L236.761 171.833Z" fill="#0A3B56"/>
<path d="M236.761 162.403L244.833 254H252.514L252.742 159.742L236.761 162.403Z" fill="#0B4870"/>
<path d="M234.997 122.333L234.047 125.914V157.936L252.906 157.472L246.792 117.75L243.439 115.397L237.158 118.803L234.997 122.333Z" fill="#F7F7F7"/>
<path d="M236.761 121.656L234.047 140.611L233.047 175.769H256.075C256.075 175.769 251.208 119.308 247.32 117.028C243.714 115.708 240.764 115.333 237.589 118.411C237.531 119.547 236.761 121.656 236.761 121.656Z" fill="#0E538C"/>
<path d="M236.761 109.433C236.761 109.614 237.361 115.894 237.361 115.894H241.97L243.947 112.664L238.008 109.069L236.761 109.433Z" fill="#FCD2B1"/>
<path d="M238.422 95.161C238.147 95.5721 232.806 104.2 234.314 109.133C236.781 111.05 240.203 112.419 240.203 112.419C240.203 112.419 243.489 111.461 245.681 106.942C247.872 102.419 247.464 95.7082 238.422 95.161Z" fill="#FFE3CA"/>
<path d="M253.445 102.2C254.331 104.094 249.786 114.161 242.595 114.872C240.856 113.708 240.417 112.419 240.417 112.419L239.292 100.044L252.961 100.35L253.445 102.2Z" fill="#0B4870"/>
<path d="M239.295 100.044C237.525 96.6945 236.014 93.0972 239.295 89.7222C241.997 91.0722 256.853 97.3445 253.283 102.458C251.933 103.789 239.295 100.044 239.295 100.044Z" fill="#0B4870"/>
<path d="M239.294 98.3361C239.314 98.4806 238.008 102.744 238.008 102.744L238.65 103.069L241.967 99.6889L239.294 98.3361Z" fill="#0B4870"/>
<path d="M240.912 104.62C241.79 103.445 242.009 102.125 241.402 101.671C240.795 101.218 239.591 101.802 238.713 102.977C237.835 104.152 237.616 105.472 238.223 105.925C238.83 106.379 240.034 105.795 240.912 104.62Z" fill="#FFE3CA"/>
<path d="M245.597 114.872C242.231 114.611 237.622 114.372 235.539 117.655C235.058 119.819 234.978 122.864 234.978 122.864C234.978 122.864 238.558 115.572 246.425 116.533C247 115.811 247.319 115.25 247.319 115.25L245.597 114.872Z" fill="#F2F2F2"/>
<path d="M244.948 156.671L217.74 148.867L215.595 156.346L242.803 164.15L244.948 156.671Z" fill="#CCE9FF"/>
<path d="M228.525 153.164L228.478 151.683L215.042 147.831L214.653 149.183L213.922 151.731L208.908 169.214L239.706 178.047L245.45 158.017L228.525 153.164Z" fill="#FFBE55"/>
<path d="M221.706 167.05C221.706 167.05 219.161 171.15 217.906 172.65C217.603 173.014 217.108 173.155 216.658 173.008C214.872 172.428 210.806 170.358 210.806 170.358L219.714 164.761L221.706 167.05Z" fill="#FCD2B1"/>
<path d="M249.572 128.655C250.933 122.592 243.703 115.997 240.417 119.747C233.2 127.978 235.947 154.214 216.661 165.28C217.836 166.455 220.619 169.486 220.619 169.486C220.619 169.486 233.342 165.9 249.572 128.655Z" fill="#1B75B2"/>
<path d="M217.514 71.4332L217.25 72.6915L206.139 70.0304L204.822 69.1526H206.489L217.514 71.4332Z" fill="#0E538C"/>
<path d="M204.922 71.5889L196.169 73.575L198.05 75.6945L158.906 110.122L136.211 100.408L121.361 117.028L99.7861 108.539L82.2194 129.622L63.575 120.225L27.3972 159.228L29.9222 161.57L64.3389 124.467L83.1111 133.928L100.842 112.656L122.331 121.108L137.131 104.547L159.547 114.142L200.331 78.275L201.772 79.8862L204.922 71.5889Z" fill="white" stroke="#CCE9FF" stroke-miterlimit="10"/>
<path d="M204.811 69.1777L196.058 71.1638L197.939 73.2833L158.794 107.708L136.1 97.9972L121.25 114.614L99.675 106.128L82.1084 127.211L63.4639 117.811L27.2861 156.817L29.8111 159.158L64.2278 122.053L83 131.517L100.731 110.242L122.219 118.697L137.019 102.136L159.436 111.731L200.219 75.8611L201.658 77.475L204.811 69.1777Z" fill="#CCE9FF"/>
<path d="M265.983 91.8973C265.983 92.1195 265.9 92.3223 265.761 92.4751C265.9 92.6279 265.983 92.8306 265.983 93.0529V93.7751C265.983 93.9334 265.942 94.0806 265.867 94.2084C265.942 94.3362 265.983 94.4834 265.983 94.6417V95.364C265.983 95.8417 265.594 96.2306 265.117 96.2306H257.603C257.125 96.2306 256.736 95.8417 256.736 95.364V94.6417C256.736 94.4834 256.778 94.3362 256.853 94.2084C256.778 94.0806 256.736 93.9334 256.736 93.7751V93.0529C256.736 92.8306 256.819 92.6279 256.958 92.4751C256.819 92.3223 256.736 92.1195 256.736 91.8973V91.1751C256.736 90.6973 257.125 90.3084 257.603 90.3084H265.117C265.594 90.3084 265.983 90.6973 265.983 91.1751V91.8973Z" fill="#D3D3D3"/>
<path d="M271.981 75.5361C271.981 79.7444 269.533 83.3806 265.983 85.1V89.0167C265.983 89.3111 265.742 89.55 265.45 89.55H257.272C256.978 89.55 256.739 89.3083 256.739 89.0167V85.1C253.189 83.3806 250.742 79.7444 250.742 75.5361C250.742 69.6695 255.497 64.9167 261.361 64.9167C267.225 64.9167 271.981 69.6722 271.981 75.5361Z" fill="#FFBE55"/>
<path d="M264.978 92.7195H257.861C257.761 92.7195 257.678 92.6389 257.678 92.5361C257.678 92.4361 257.758 92.3528 257.861 92.3528H264.981C265.081 92.3528 265.164 92.4333 265.164 92.5361C265.161 92.6389 265.081 92.7195 264.978 92.7195Z" fill="#F7F7F7"/>
<path d="M264.978 94.3529H257.861C257.761 94.3529 257.678 94.2723 257.678 94.1695C257.678 94.0695 257.758 93.9862 257.861 93.9862H264.981C265.081 93.9862 265.164 94.0668 265.164 94.1695C265.161 94.2723 265.081 94.3529 264.978 94.3529Z" fill="#F7F7F7"/>
<path d="M263.181 76.8445C263.047 76.725 262.867 76.6695 262.67 76.6889C262.428 76.7139 262.186 76.85 262.042 77.0473C261.911 77.2223 261.842 77.4306 261.803 77.6306C261.695 77.575 261.583 77.5139 261.475 77.4473L261.433 77.4223H261.286L261.245 77.4473C261.133 77.5139 261.025 77.575 260.917 77.6306C260.878 77.4306 260.808 77.2223 260.678 77.0473C260.533 76.85 260.292 76.7139 260.05 76.6889C259.856 76.6695 259.675 76.725 259.539 76.8445C259.364 77.0028 259.3 77.2389 259.37 77.4917C259.458 77.8139 259.736 78.0834 260.045 78.1473C260.242 78.1861 260.433 78.1723 260.622 78.1223V78.1278C260.917 81.9139 261.025 85.7556 260.945 89.5528H261.295C261.372 85.7473 261.264 81.8945 260.97 78.1C260.967 78.0667 260.964 78.0334 260.961 77.9973C261.095 77.9362 261.228 77.8639 261.356 77.7889C261.486 77.8639 261.617 77.9362 261.75 77.9973C261.747 78.0334 261.745 78.0667 261.742 78.1C261.447 81.8945 261.339 85.7445 261.417 89.5528H261.767C261.711 85.7639 261.903 81.9556 262.089 78.1278V78.1223C262.278 78.1723 262.47 78.1889 262.667 78.1473C262.975 78.0834 263.253 77.8167 263.342 77.4917C263.42 77.2389 263.358 77.0056 263.181 76.8445ZM260.114 77.8028C259.936 77.7667 259.761 77.5917 259.708 77.4C259.686 77.3139 259.678 77.1945 259.775 77.1056C259.836 77.05 259.911 77.0361 259.975 77.0361C259.989 77.0361 260.003 77.0361 260.017 77.0389C260.161 77.0528 260.311 77.1389 260.397 77.2556C260.503 77.3973 260.556 77.5723 260.586 77.7695C260.428 77.8167 260.27 77.8361 260.114 77.8028ZM263.011 77.4C262.958 77.5945 262.783 77.7667 262.606 77.8028C262.45 77.8334 262.292 77.8167 262.133 77.7667C262.164 77.5695 262.217 77.3945 262.322 77.2528C262.408 77.1361 262.558 77.05 262.703 77.0361C262.772 77.0278 262.87 77.0362 262.945 77.1028C263.045 77.1945 263.036 77.3139 263.011 77.4Z" fill="white"/>
<path d="M251.792 76.9389C251.65 76.9389 251.528 76.8278 251.52 76.6833C251.17 71.1778 255.272 67.6417 258.117 66.6056C258.258 66.5528 258.417 66.6278 258.467 66.7694C258.52 66.9111 258.445 67.0694 258.303 67.1194C255.614 68.0972 251.731 71.4417 252.064 76.6472C252.072 76.7972 251.958 76.9278 251.808 76.9389C251.803 76.9389 251.797 76.9389 251.792 76.9389Z" fill="white"/>
</svg>
