<svg width="300" height="300" viewBox="0 0 300 300" fill="none" xmlns="http://www.w3.org/2000/svg">
<path d="M23.889 41.3889H275.833V162.5H23.889V41.3889Z" fill="#F7F7F7"/>
<path d="M32.4917 110.6V137.017H34.6834V146.367H40.1639V141.083H46.7056V137.894H39.0695V136.142H46.7056V131.939H47.65V136.142H49.15V137.017H50.9056V132.142H54.6306V137.017H60.7695V141.894H67.5639V134.172H68.6611V128.483H69.7223V119.606H60.1111V117.853H69.7223V116.697H70.6667V117.853H74.1389V119.606H70.6667V128.483H75.2361V139.864H88.3889V131.328H89.6695V128.547H84.2222V126.794H89.6695V126.022H90.6139V126.794H91.4584V128.547H90.6139V131.328H94.525V136.142H101.322V137.894H98.3972V140.675H102.636V144.739H104.608V142.708H106.581V110.6H107.897V105.722H112.061V143.519H119.953V105.722H123.242V108.975H124.994V134.578H127.844V141.489H129.158V134.578H134.639V130.108H137.05V124.825H139.242V113.039H142.75V117.508H151.517V134.578H156.122V128.889H161.6V117.508H175.192V130.922H177.306V134.578H178.697V111.414H180.233V105.722H182.864V110.6H185.714V130.108H187.028V134.578H188.561V120.761H199.303V132.142H202.811V137.017H204.783V139.864H206.756V136.611L207.961 134.378V129.297H213.333V141.083H215.306V138.236H217.497V105.722H219.25V96.7833H221.222V92.3111H223.853V88.6111H227.8V95.1555H229.992V102.067H231.306V126.022H233.717V121.575H236.786V128.078H240.294V109.381L241.608 106.942V98.4083H248.842V104.503H252.569V116.697H254.322V114.258H256.514L257.831 116.697L258.4 117.753V145.958H260.897V117.917H263.092V115.069H266.378V119.542H269.447V126.794H271.167V123.606H272.111V126.794H276.242V128.547H272.111V137.831H272.517V145.553H275.833V162.5H23.8889V110.6H32.4917ZM269.447 130.922H270.981V137.831H271.167V128.547H269.447V130.922ZM94.525 140.675H97.45V137.894H94.525V140.675ZM47.65 141.083H49.15V137.894H47.65V141.083Z" fill="#F2F2F2"/>
<path d="M201.389 162.5H246.667L160.833 41.3889H115.556L201.389 162.5Z" fill="white"/>
<path d="M150.833 162.5H173.333L87.4999 41.3889H64.9999L150.833 162.5Z" stroke="white" stroke-miterlimit="10"/>
<path d="M16.9694 269.722H283.031C284.625 269.722 285.928 268.419 285.928 266.825V253.911C285.928 252.317 284.625 251.014 283.031 251.014H16.9694C15.3749 251.014 14.0722 252.317 14.0722 253.911V266.825C14.0722 268.419 15.3749 269.722 16.9694 269.722Z" fill="#F2F2F2"/>
<path d="M180.936 199.836L211.286 204.445L213.333 202.5V178.056H179.475L175.833 180.128L180.936 199.836Z" fill="#0E538C"/>
<path d="M175.833 180.128H211.286V204.445H175.833V180.128Z" fill="#CCE9FF"/>
<path d="M190.605 178.85H201.35V173.731C201.35 170.908 198.939 168.611 195.978 168.611C193.017 168.611 190.605 170.908 190.605 173.731V178.85ZM200.005 177.57H191.947V173.731C191.947 171.614 193.755 169.892 195.975 169.892C198.197 169.892 200.003 171.614 200.003 173.731V177.57H200.005Z" fill="#0E538C"/>
<path d="M175.833 193.889H190.556H211.389V180H175.833V193.889Z" fill="#2A94F4"/>
<path d="M185.278 190.556H198.611V197.222H185.278V190.556Z" fill="#2A94F4"/>
<path d="M86.6667 82.7777L83.3333 76.111L79.4444 74.7221L78.3333 66.6666L86.1111 68.3333C86.1111 68.3333 85.8333 63.8888 86.9444 63.3333C87.7778 65.5555 88.8889 69.1666 88.8889 69.1666C88.8889 69.1666 88.3333 74.1666 88.3333 75.5555C88.8889 76.9444 92.5 80.5555 92.5 80.5555L86.6667 82.7777Z" fill="#FCD2B1"/>
<path d="M198.408 162.5C198.408 162.5 200.955 169.947 200.278 171.667C199.6 173.386 192.419 174.164 192.419 174.164L191.667 168.333L194.505 162.5H198.408Z" fill="#FCD2B1"/>
<path d="M132.975 259.892L115.958 265.414H136.675V259.892H132.975Z" fill="#0A3951"/>
<path d="M175.147 259.892L159.608 265.414H180.144L179.092 259.892H175.147Z" fill="#0A3951"/>
<path d="M142.419 148.156L130.903 262.408H137.828C137.828 262.408 151.664 212.778 148.886 203.056C150.653 195.189 161.817 169.031 159.217 165.703C156.617 162.375 151.855 145.008 151.855 145.008L142.419 148.156Z" fill="#083047"/>
<path d="M144.203 149.883L149.786 157.572L172.808 262.408H180.122C180.122 262.408 178.853 209.694 173.611 203.056C171.514 191.175 172.086 149.883 168.242 147.089C161.253 146.739 145.519 143.944 145.519 143.944L144.203 149.883Z" fill="#0A3951"/>
<path d="M143.056 89.9999L144.167 147.5L159.722 146.111L161.389 87.2221C159.103 87.0082 151.067 87.1638 149.444 86.9443L143.056 89.9999Z" fill="white"/>
<path d="M159.505 57.4027C162.722 60.786 163.489 67.8333 161.408 71.2138C159.328 74.5944 154.847 76.0166 152.972 77.7666C150.205 73.4471 145.972 70.2666 145.972 70.2666L149.483 60.7777L154.333 59.0694L159.505 57.4027Z" fill="#0E538C"/>
<path d="M145.519 78.875V87.4139L148.803 92.3389L156.686 85.0333L153.564 69.9083L145.519 78.875Z" fill="#FCD2B1"/>
<path d="M136.653 57.5055C136.278 68.3805 134.111 80.3555 135.208 82.1499C136.305 83.9444 149.341 85.5833 151.586 80.8999C153.83 76.2166 159.583 64.6944 156.855 60.0472C154.128 55.4027 136.653 57.5055 136.653 57.5055Z" fill="#FFE3CA"/>
<path d="M152.169 60.45C151.189 62.975 151.783 67.9444 154.308 68.925C154.119 70.4277 153.566 73.2583 153.322 74.4833C153.255 74.8166 153.466 75.1416 153.8 75.2166C154.561 75.3888 155.225 75.6277 155.255 75.4027C155.297 75.0777 159.014 61.3111 159.014 61.3111L152.169 60.45Z" fill="#0E538C"/>
<path d="M155.252 74.4382C154.131 73.9812 153.736 72.352 154.369 70.7992C155.002 69.2465 156.424 68.3583 157.545 68.8154C158.666 69.2724 159.061 70.9017 158.428 72.4544C157.795 74.0071 156.373 74.8953 155.252 74.4382Z" fill="#FFE3CA"/>
<path d="M154.675 68.6415L153.611 74.4638L154.644 74.9943L156.319 66.9304L154.675 68.6415Z" fill="#0E538C"/>
<path d="M148.803 92.3388L152.241 97.2554L159.219 86.636L156.686 85.0332L148.803 92.3388Z" fill="#F2F2F2"/>
<path d="M148.803 92.3388L147.733 97.2555L144.203 89.7055L145.519 87.4138L148.803 92.3388Z" fill="#F2F2F2"/>
<path d="M148.083 95.6445L148.803 97.6528L145.264 132.133C145.264 132.133 148.589 140.981 148.886 140.003C149.183 139.025 153.753 131.339 153.753 131.339L150.753 97.7056L151.1 95.6278L148.8 92.3417L148.083 95.6445Z" fill="#FFBE55"/>
<path d="M159.128 61.0471C160.522 60.2694 160.847 58.2666 160.169 56.8194C159.492 55.3721 158.083 54.4083 156.642 53.7221C154.381 52.6471 151.881 52.0805 149.378 52.0777C148.206 52.0777 147.033 52.1971 145.867 52.0721C144.703 51.9471 143.514 51.5444 142.731 50.6721C141.947 49.8027 141.697 48.3916 142.383 47.4416C139.928 48.8777 137.667 50.6499 135.683 52.6888C135.442 51.411 135.614 50.061 136.164 48.8833C135.083 50.1971 133.992 51.5249 133.236 53.0471C132.478 54.5694 132.072 56.3277 132.442 57.9888C132.953 60.286 134.892 62.061 137.067 62.9583C139.242 63.8555 141.644 64.0083 143.997 64.0638C146.642 64.1249 149.319 64.0749 151.883 63.4194C154.447 62.7638 156.431 63.1944 158.056 61.1083L159.128 61.0471Z" fill="#0E538C"/>
<path d="M145.456 74.6944L145.772 74.7166C147.839 74.8638 149.636 73.3083 149.783 71.2416L149.969 68.6444L142.167 68.0861L141.981 70.6833C141.833 72.7527 143.389 74.5472 145.456 74.6944Z" fill="#0E538C"/>
<path d="M136.428 74.0249C138.18 74.1499 139.705 72.8305 139.83 71.0749L140.055 67.911L133.705 67.4583L133.48 70.6221C133.355 72.3749 134.675 73.8999 136.428 74.0249Z" fill="#0E538C"/>
<path d="M139.197 68.6124L143.088 68.8905L143.008 69.9988L139.118 69.7208L139.197 68.6124Z" fill="#0E538C"/>
<path d="M149.444 71.1111L157.017 68.325L156.872 67.7861L149.461 69.0306L149.444 71.1111Z" fill="#0E538C"/>
<path d="M159.167 86.6665C159.167 86.6665 173.889 89.9998 178.333 92.2221C182.778 94.4443 202.5 124.722 199.722 165C196.389 165 190.555 162.5 190.555 162.5C190.555 162.5 194.722 118.889 172.222 110C171.944 121.389 178.611 165 178.611 165L156.319 162.483L159.167 86.6665Z" fill="#0E538C"/>
<path d="M144.166 89.4443L145.278 162.5L137.5 165L139.166 106.667C139.166 106.667 100.833 113.889 84.1665 79.7221C86.6665 79.1665 91.6665 78.611 91.6665 78.611C91.6665 78.611 114.722 103.611 139.166 91.111C142.222 89.7221 144.166 89.4443 144.166 89.4443Z" fill="#0E538C"/>
<path d="M42.0028 258.892C35.0056 258.892 32.05 253.303 30.8889 247.375C29.575 240.686 30.5389 233.567 30.5389 233.567H53.4667C53.4667 233.567 53.5028 233.839 53.5528 234.322C53.9806 238.533 55.3611 258.892 42.0028 258.892Z" fill="#B6E7FF"/>
<path d="M53.4666 233.566C53.4666 234.066 48.3332 234.472 42.0027 234.472C35.6721 234.472 30.5388 234.066 30.5388 233.566C30.5388 233.066 35.6721 232.661 42.0027 232.661C48.336 232.661 53.4666 233.066 53.4666 233.566Z" fill="#85DDFF"/>
<path d="M73.0471 170.003C73.0471 170.003 60.9555 188.397 53.7027 199.625C46.4499 210.853 44.5471 213.183 43.6832 216.811C42.8193 220.439 42.0415 233.825 42.0415 233.825H41.5054C41.5054 233.825 41.6916 222.464 42.3471 218.639C42.9804 214.942 42.3027 213.617 41.7832 209.73C41.2638 205.844 40.5749 199.625 44.5027 195.308C48.4332 190.989 47.3971 186.758 48.7777 183.908C50.161 181.058 60.8693 177.603 62.2499 174.667C63.636 171.73 69.6805 169.917 73.0471 170.003Z" fill="#2A94F4"/>
<path d="M73.0471 170.002C73.0471 170.002 69.2471 174.322 66.6555 175.788C64.0638 177.255 62.8555 175.961 60.8694 179.502C58.8832 183.044 58.8055 184.597 56.9888 186.411C55.1693 188.225 53.011 188.311 52.8388 192.283C52.6666 196.255 53.7027 199.625 53.7027 199.625C53.7027 199.625 72.2721 170.952 73.0471 170.002Z" fill="#41AAF7"/>
<path d="M43 233.828H43.5416C43.5416 233.828 43.7028 230.15 45.1639 228.364C46.1055 227.211 50.1083 225.903 54.0639 224.336C56.2416 223.472 58.4083 222.53 60.0389 221.491C64.6389 218.569 69.0222 209.155 69.3972 207.478C69.5305 206.894 69.5889 206.539 69.5861 206.297V206.291C69.575 205.841 69.3528 205.772 68.9666 205.316C68.7805 205.097 68.2194 205.172 67.5361 205.38C65.5528 205.986 63.8777 207.344 62.8416 209.139C61.8833 210.8 60.35 212.875 58.4722 213.378C55.225 214.244 55.4944 214.783 54.2972 218.086C53.1027 221.389 50.0833 221.928 46.2972 225.822C42.5138 229.714 43 233.828 43 233.828Z" fill="#2A94F4"/>
<path d="M54.0665 224.333C56.2443 223.469 58.411 222.528 60.0415 221.489C64.6415 218.567 69.0249 209.153 69.3999 207.475C69.5332 206.892 69.5916 206.536 69.5888 206.294C69.5749 206.406 69.361 207.894 66.9665 208.886C64.4804 209.911 63.9915 209.911 63.6693 211.483C63.3443 213.05 63.0721 214.731 61.7749 215.056C60.4776 215.381 59.6637 213.919 58.6387 216.3C57.611 218.681 57.1193 219.492 56.1749 219.817C55.2304 220.142 54.5137 219.656 54.3026 221.494C54.1749 222.614 54.1026 223.678 54.0665 224.333Z" fill="#41AAF7"/>
<path d="M39.0248 233.828H38.3831C38.3831 233.828 37.1276 211.053 35.3998 208.939C34.2859 207.575 30.6054 205.128 25.9193 203.272C23.3387 202.25 20.7748 201.133 18.8415 199.905C13.3943 196.444 8.20263 185.294 7.75819 183.308C7.59986 182.617 7.5304 182.197 7.53595 181.908V181.9C7.54706 181.367 7.81373 181.286 8.26929 180.747C8.48873 180.486 9.15261 180.578 9.96373 180.822C12.3137 181.539 14.2943 183.147 15.5248 185.275C16.6609 187.242 18.4776 189.7 20.7026 190.294C24.5471 191.322 24.2276 191.958 25.6471 195.869C27.0609 199.78 30.6387 200.417 35.1193 205.03C39.6026 209.642 39.0248 233.828 39.0248 233.828Z" fill="#2A94F4"/>
<path d="M25.9194 203.269C23.3389 202.247 20.775 201.131 18.8417 199.903C13.3944 196.442 8.20279 185.292 7.75834 183.306C7.60001 182.614 7.53055 182.194 7.53611 181.906C7.55277 182.036 7.80556 183.8 10.6417 184.975C13.5861 186.189 14.1639 186.189 14.5472 188.05C14.9305 189.908 15.2556 191.894 16.7917 192.281C18.3306 192.664 19.2917 190.936 20.5055 193.753C21.725 196.572 22.3055 197.533 23.4222 197.917C24.5417 198.3 25.3917 197.725 25.6417 199.906C25.7917 201.233 25.8778 202.494 25.9194 203.269Z" fill="#41AAF7"/>
<path d="M42.0028 258.892C35.0055 258.892 32.05 253.303 30.8889 247.375C37.7472 244.775 46.3861 240.605 53.5528 234.322C53.9806 238.533 55.3611 258.892 42.0028 258.892Z" fill="#CCE9FF"/>
<path d="M269.522 259.631C265.658 259.631 264.028 256.544 263.386 253.272C262.661 249.581 263.195 245.65 263.195 245.65H275.85C275.85 245.65 275.87 245.8 275.897 246.067C276.133 248.389 276.897 259.631 269.522 259.631Z" fill="#B6E7FF"/>
<path d="M275.85 245.647C275.85 245.925 273.017 246.147 269.52 246.147C266.025 246.147 263.189 245.922 263.189 245.647C263.189 245.369 266.022 245.147 269.52 245.147C273.017 245.147 275.85 245.372 275.85 245.647Z" fill="#85DDFF"/>
<path d="M290.278 203.614C290.278 203.614 282.286 215.769 277.495 223.192C272.703 230.614 271.444 232.153 270.875 234.55C270.303 236.947 269.792 245.794 269.792 245.794H269.164C269.164 245.794 268.764 238.317 269.506 235.864C270.247 233.411 269.961 232.439 269.619 229.872C269.278 227.303 268.819 223.194 271.417 220.342C274.014 217.489 273.328 214.692 274.242 212.808C275.156 210.925 282.233 208.642 283.144 206.703C284.056 204.756 288.053 203.556 290.278 203.614Z" fill="#2A94F4"/>
<path d="M288.531 203.614C288.531 203.614 286.019 206.467 284.308 207.439C282.597 208.408 281.797 207.553 280.483 209.892C279.169 212.231 279.119 213.258 277.919 214.458C276.717 215.656 275.292 215.714 275.178 218.339C275.064 220.964 275.747 223.189 275.747 223.189C275.747 223.189 288.017 204.242 288.531 203.614Z" fill="#41AAF7"/>
<path d="M267.131 245.647L266.672 245.511C266.672 245.511 267.467 242.367 266.683 240.489C266.181 239.278 263.133 237.161 260.189 234.836C258.57 233.555 256.978 232.214 255.864 230.925C252.72 227.294 251.403 218.239 251.508 216.728C251.545 216.2 251.583 215.886 251.647 215.683L251.65 215.678C251.772 215.3 251.978 215.297 252.42 215.014C252.631 214.875 253.086 215.08 253.611 215.43C255.133 216.442 256.203 218.011 256.622 219.792C257.011 221.436 257.781 223.575 259.239 224.475C261.761 226.028 261.397 226.414 261.572 229.505C261.745 232.594 264.158 233.814 266.367 238.058C268.581 242.3 267.131 245.647 267.131 245.647Z" fill="#2A94F4"/>
<path d="M260.189 234.836C258.57 233.555 256.978 232.214 255.864 230.925C252.72 227.294 251.403 218.239 251.508 216.728C251.545 216.2 251.583 215.886 251.647 215.683C251.631 215.78 251.433 217.092 253.206 218.533C255.045 220.028 255.456 220.153 255.333 221.561C255.211 222.967 255.017 224.453 256.031 225.055C257.045 225.658 258.1 224.63 258.364 226.897C258.631 229.167 258.839 229.975 259.556 230.489C260.272 231.003 261 230.772 260.711 232.38C260.533 233.355 260.325 234.272 260.189 234.836Z" fill="#41AAF7"/>
<path d="M269.522 259.63C265.658 259.63 264.028 256.544 263.386 253.272C267.172 251.836 271.942 249.533 275.897 246.067C276.133 248.389 276.897 259.63 269.522 259.63Z" fill="#CCE9FF"/>
</svg>
