<svg width="136" height="136" viewBox="0 0 136 136" fill="none" xmlns="http://www.w3.org/2000/svg">
<circle cx="68" cy="68" r="63" fill="#D3E0FF" stroke="#E4ECFF" stroke-width="10"/>
<path d="M114.379 65.3455V86.19H89.0759L81.6734 93.1633V86.19H77.1438V65.3455H114.379Z" stroke="#4167C9" stroke-width="3" stroke-miterlimit="10" stroke-linecap="round"/>
<path d="M21 39.158V60.0063H46.3026L53.7051 66.9795V60.0063H58.2347V39.158H21Z" stroke="#4167C9" stroke-width="3" stroke-miterlimit="10" stroke-linecap="round"/>
<path d="M27.0696 60.1156C26.5725 62.6685 26.3127 65.3041 26.3127 68.0001C26.3127 90.6444 44.6684 109 67.3127 109C83.4243 109 97.3634 99.7074 104.066 86.1901" stroke="#4167C9" stroke-width="3" stroke-miterlimit="10" stroke-linecap="round"/>
<path d="M108.226 65.3455C106.859 43.9399 89.0647 27 67.3127 27C55.9153 27 45.6022 31.6501 38.1733 39.1581" stroke="#4167C9" stroke-width="3" stroke-miterlimit="10" stroke-linecap="round"/>
<path d="M67.3127 27V109" stroke="#4167C9" stroke-width="3" stroke-miterlimit="10" stroke-linecap="round"/>
<path d="M87.2611 88.3813C82.9499 102.516 75.2273 108.179 75.2273 108.179" stroke="#4167C9" stroke-width="3" stroke-miterlimit="10" stroke-linecap="round"/>
<path d="M75.231 27.8209C75.231 27.8209 89.1888 38.0549 90.0473 65.3456" stroke="#4167C9" stroke-width="3" stroke-miterlimit="10" stroke-linecap="round"/>
<path d="M44.9282 60.0063C44.6759 62.5027 44.5366 65.1648 44.5366 68C44.5366 97.2863 59.3944 108.179 59.3944 108.179" stroke="#4167C9" stroke-width="3" stroke-miterlimit="10" stroke-linecap="round"/>
<path d="M59.3943 27.8209C59.3943 27.8209 54.8195 31.1758 50.7493 39.1619" stroke="#4167C9" stroke-width="3" stroke-miterlimit="10" stroke-linecap="round"/>
<path d="M26.3127 68H77.1439" stroke="#4167C9" stroke-width="3" stroke-miterlimit="10"/>
<path d="M58.2349 51.3951C60.9572 51.9185 63.9769 52.231 67.3129 52.231C88.6206 52.231 97.0585 39.5308 97.0585 39.5308" stroke="#4167C9" stroke-width="3" stroke-miterlimit="10"/>
<path d="M87.2612 88.3813C94.099 92.0148 97.0585 96.4654 97.0585 96.4654" stroke="#4167C9" stroke-width="3" stroke-miterlimit="10"/>
<path d="M37.5671 96.4691C37.5671 96.4691 46.0051 83.7689 67.3128 83.7689C70.9613 83.7689 74.2296 84.1417 77.1439 84.7592" stroke="#4167C9" stroke-width="3" stroke-miterlimit="10"/>
</svg>
