<svg width="136" height="136" viewBox="0 0 136 136" fill="none" xmlns="http://www.w3.org/2000/svg">
<circle cx="68" cy="68" r="63" fill="#D3E0FF" stroke="#E4ECFF" stroke-width="10"/>
<path d="M93 51.9976C93 37.9892 81.4796 26.6728 67.3944 27.0072C53.7605 27.3283 42.8053 38.7349 43.0026 52.3721C43.0829 57.9333 44.9823 63.0497 48.1291 67.163C52.3694 72.7041 55.0514 79.2752 55.6098 86.2276L56.2285 93.919H79.7675L80.3594 86.572C80.9312 79.4658 83.6466 72.7442 87.9471 67.0593C91.1173 62.8692 93 57.6524 93 51.9976Z" stroke="#4167C9" stroke-width="3" stroke-miterlimit="10" stroke-linecap="round"/>
<path d="M81.192 95.8484H54.8105V99.1189H81.192V95.8484Z" stroke="#4167C9" stroke-width="3" stroke-miterlimit="10" stroke-linecap="round"/>
<path d="M81.192 101.052H54.8105V104.322H81.192V101.052Z" stroke="#4167C9" stroke-width="3" stroke-miterlimit="10" stroke-linecap="round"/>
<path d="M79.0351 106.252H56.9641L58.5793 109.522H77.4199L79.0351 106.252Z" stroke="#4167C9" stroke-width="3" stroke-miterlimit="10" stroke-linecap="round"/>
<path d="M61.9402 93.9156V65.1899" stroke="#4167C9" stroke-width="3" stroke-miterlimit="10" stroke-linecap="round"/>
<path d="M74.2998 93.9156V65.1899" stroke="#4167C9" stroke-width="3" stroke-miterlimit="10" stroke-linecap="round"/>
<path d="M61.9402 74.52L67.9997 70.2864V76.8976L74.2999 73.5903" stroke="#4167C9" stroke-width="3" stroke-miterlimit="10" stroke-linecap="round"/>
<path d="M61.9401 65.19C62.9005 65.19 63.679 64.4115 63.679 63.4511C63.679 62.4907 62.9005 61.7122 61.9401 61.7122C60.9797 61.7122 60.2012 62.4907 60.2012 63.4511C60.2012 64.4115 60.9797 65.19 61.9401 65.19Z" stroke="#4167C9" stroke-width="3" stroke-miterlimit="10" stroke-linecap="round"/>
<path d="M74.3 65.19C75.2603 65.19 76.0389 64.4115 76.0389 63.4511C76.0389 62.4907 75.2603 61.7122 74.3 61.7122C73.3396 61.7122 72.561 62.4907 72.561 63.4511C72.561 64.4115 73.3396 65.19 74.3 65.19Z" stroke="#4167C9" stroke-width="3" stroke-miterlimit="10" stroke-linecap="round"/>
</svg>
