<svg width="136" height="136" viewBox="0 0 136 136" fill="none" xmlns="http://www.w3.org/2000/svg">
<circle cx="68" cy="68" r="63" fill="#D3E0FF" stroke="#E4ECFF" stroke-width="10"/>
<path d="M68.0024 68.0008L87.5942 48.0974" stroke="#4167C9" stroke-width="3" stroke-miterlimit="10" stroke-linecap="round"/>
<path d="M105.169 39.3297L96.9391 38.6015L96.0798 30.3817L86.7349 39.8775L87.5942 48.0973L95.8239 48.8255L105.169 39.3297Z" stroke="#4167C9" stroke-width="3" stroke-miterlimit="10" stroke-linecap="round"/>
<path d="M68.0024 69.9459C69.0767 69.9459 69.9475 69.0751 69.9475 68.0009C69.9475 66.9266 69.0767 66.0558 68.0024 66.0558C66.9282 66.0558 66.0574 66.9266 66.0574 68.0009C66.0574 69.0751 66.9282 69.9459 68.0024 69.9459Z" stroke="#4167C9" stroke-width="3" stroke-miterlimit="10" stroke-linecap="round"/>
<path d="M85.9551 57.1015C90.8357 65.1265 89.8557 75.7332 82.9674 82.7306C74.8303 90.9965 61.5353 91.1029 53.2694 82.9659C45.0035 74.8288 44.8971 61.534 53.0342 53.2681C59.9225 46.2679 70.5125 45.1227 78.6132 49.8744" stroke="#4167C9" stroke-width="3" stroke-miterlimit="10" stroke-linecap="round"/>
<path d="M88.7226 32.6122C72.9061 23.333 52.2319 25.5732 38.7804 39.238C22.8951 55.3759 23.1017 81.3343 39.2396 97.2196C55.3775 113.105 81.3359 112.898 97.2212 96.7604C110.673 83.0957 112.582 62.3886 103.056 46.7198" stroke="#4167C9" stroke-width="3" stroke-miterlimit="10" stroke-linecap="round"/>
<path d="M83.6671 41.2433C71.7048 34.2287 56.076 35.9193 45.9076 46.2532C33.8957 58.4555 34.0528 78.0858 46.2548 90.0938C58.4569 102.102 78.0869 101.949 90.0947 89.7466C100.263 79.4127 101.71 63.7589 94.5051 51.9121" stroke="#4167C9" stroke-width="3" stroke-miterlimit="10" stroke-linecap="round"/>
<path d="M75.2316 63.612C77.1963 66.8428 76.8027 71.1135 74.0278 73.931C70.751 77.2603 65.3979 77.3029 62.072 74.0262C58.7427 70.7494 58.7001 65.3963 61.9768 62.0704C64.7518 59.2528 69.0126 58.7903 72.2762 60.7026" stroke="#4167C9" stroke-width="3" stroke-miterlimit="10" stroke-linecap="round"/>
<path d="M87.5942 48.0975L96.9391 38.6017" stroke="#4167C9" stroke-width="3" stroke-miterlimit="10" stroke-linecap="round"/>
</svg>
